<svg xmlns="http://www.w3.org/2000/svg" xmlns:xlink="http://www.w3.org/1999/xlink" width="2000" zoomAndPan="magnify" viewBox="0 0 1500 1499.999933" height="2000" preserveAspectRatio="xMidYMid meet" version="1.0"><defs><clipPath id="d022620d7f"><path d="M 29 83 L 902 83 L 902 1186 L 29 1186 Z M 29 83 " clip-rule="nonzero"/></clipPath><clipPath id="b700015a9a"><path d="M 232.203125 1214.5625 L -0.0078125 1051.96875 L 699.273438 53.289062 L 931.484375 215.882812 Z M 232.203125 1214.5625 " clip-rule="nonzero"/></clipPath><clipPath id="59fad877e7"><path d="M 170.765625 1171.542969 L 61.429688 1094.984375 C 45.136719 1083.578125 34.042969 1066.164062 30.589844 1046.574219 C 27.132812 1026.984375 31.601562 1006.824219 43.011719 990.53125 L 655.945312 115.171875 C 667.355469 98.875 684.769531 87.78125 704.359375 84.328125 C 723.949219 80.875 744.105469 85.34375 760.402344 96.753906 L 869.738281 173.308594 C 886.03125 184.71875 897.125 202.132812 900.578125 221.722656 C 904.03125 241.3125 899.5625 261.472656 888.15625 277.765625 L 275.21875 1153.125 C 263.8125 1169.417969 246.398438 1180.511719 226.808594 1183.96875 C 207.21875 1187.421875 187.058594 1182.953125 170.765625 1171.542969 Z M 170.765625 1171.542969 " clip-rule="nonzero"/></clipPath><clipPath id="7c8f1975eb"><path d="M 0 0 L 873 0 L 873 1103 L 0 1103 Z M 0 0 " clip-rule="nonzero"/></clipPath><clipPath id="7ae0be38a5"><path d="M 203.203125 1131.5625 L -29.007812 968.96875 L 670.273438 -29.710938 L 902.484375 132.882812 Z M 203.203125 1131.5625 " clip-rule="nonzero"/></clipPath><clipPath id="31619620bd"><path d="M 141.765625 1088.542969 L 32.429688 1011.984375 C 16.136719 1000.578125 5.042969 983.164062 1.589844 963.574219 C -1.867188 943.984375 2.601562 923.824219 14.011719 907.53125 L 626.945312 32.171875 C 638.355469 15.875 655.769531 4.78125 675.359375 1.328125 C 694.949219 -2.125 715.105469 2.34375 731.402344 13.753906 L 840.738281 90.308594 C 857.03125 101.71875 868.125 119.132812 871.578125 138.722656 C 875.03125 158.3125 870.5625 178.472656 859.15625 194.765625 L 246.21875 1070.125 C 234.8125 1086.417969 217.398438 1097.511719 197.808594 1100.96875 C 178.21875 1104.421875 158.058594 1099.953125 141.765625 1088.542969 Z M 141.765625 1088.542969 " clip-rule="nonzero"/></clipPath><clipPath id="33da2be055"><rect x="0" width="873" y="0" height="1103"/></clipPath><clipPath id="20101679b3"><path d="M 598 71 L 1471 71 L 1471 1174 L 598 1174 Z M 598 71 " clip-rule="nonzero"/></clipPath><clipPath id="33c77b1e52"><path d="M 1499.988281 1040.570312 L 1267.78125 1203.164062 L 568.5 204.488281 L 800.707031 41.894531 Z M 1499.988281 1040.570312 " clip-rule="nonzero"/></clipPath><clipPath id="859fa1ea41"><path d="M 1438.550781 1083.589844 L 1329.21875 1160.148438 C 1312.921875 1171.554688 1292.765625 1176.023438 1273.175781 1172.570312 C 1253.585938 1169.117188 1236.171875 1158.023438 1224.761719 1141.726562 L 611.828125 266.367188 C 600.417969 250.074219 595.949219 229.914062 599.402344 210.324219 C 602.859375 190.738281 613.953125 173.324219 630.246094 161.914062 L 739.582031 85.355469 C 755.875 73.945312 776.035156 69.476562 795.625 72.929688 C 815.214844 76.386719 832.628906 87.480469 844.035156 103.773438 L 1456.972656 979.132812 C 1468.378906 995.429688 1472.847656 1015.585938 1469.394531 1035.175781 C 1465.941406 1054.765625 1454.847656 1072.179688 1438.550781 1083.589844 Z M 1438.550781 1083.589844 " clip-rule="nonzero"/></clipPath><clipPath id="3d9ed5d873"><path d="M 0 0 L 873 0 L 873 1103 L 0 1103 Z M 0 0 " clip-rule="nonzero"/></clipPath><clipPath id="c4b97c9a39"><path d="M 901.988281 969.570312 L 669.78125 1132.164062 L -29.5 133.488281 L 202.707031 -29.105469 Z M 901.988281 969.570312 " clip-rule="nonzero"/></clipPath><clipPath id="04d7ac40a1"><path d="M 840.550781 1012.589844 L 731.21875 1089.148438 C 714.921875 1100.554688 694.765625 1105.023438 675.175781 1101.570312 C 655.585938 1098.117188 638.171875 1087.023438 626.761719 1070.726562 L 13.828125 195.367188 C 2.417969 179.074219 -2.050781 158.914062 1.402344 139.324219 C 4.859375 119.738281 15.953125 102.324219 32.246094 90.914062 L 141.582031 14.355469 C 157.875 2.945312 178.035156 -1.523438 197.625 1.929688 C 217.214844 5.386719 234.628906 16.480469 246.035156 32.773438 L 858.972656 908.132812 C 870.378906 924.429688 874.847656 944.585938 871.394531 964.175781 C 867.941406 983.765625 856.847656 1001.179688 840.550781 1012.589844 Z M 840.550781 1012.589844 " clip-rule="nonzero"/></clipPath><clipPath id="f59e0aefa9"><rect x="0" width="873" y="0" height="1103"/></clipPath><clipPath id="e156119107"><path d="M 325.667969 738.671875 L 642.449219 738.671875 L 642.449219 993.800781 L 325.667969 993.800781 Z M 325.667969 738.671875 " clip-rule="nonzero"/></clipPath><clipPath id="ec1077ded5"><path d="M 0.667969 0.671875 L 317.449219 0.671875 L 317.449219 255.800781 L 0.667969 255.800781 Z M 0.667969 0.671875 " clip-rule="nonzero"/></clipPath><clipPath id="eea6de422c"><rect x="0" width="318" y="0" height="256"/></clipPath><clipPath id="88134009d2"><path d="M 858.027344 738.671875 L 1174.808594 738.671875 L 1174.808594 993.800781 L 858.027344 993.800781 Z M 858.027344 738.671875 " clip-rule="nonzero"/></clipPath><clipPath id="461716fd7d"><path d="M 0.0273438 0.671875 L 316.808594 0.671875 L 316.808594 255.800781 L 0.0273438 255.800781 Z M 0.0273438 0.671875 " clip-rule="nonzero"/></clipPath><clipPath id="a800a2bd0c"><rect x="0" width="317" y="0" height="256"/></clipPath><clipPath id="100c2bcaac"><path d="M 36.097656 1202.535156 L 1463.210938 1202.535156 L 1463.210938 1457.660156 L 36.097656 1457.660156 Z M 36.097656 1202.535156 " clip-rule="nonzero"/></clipPath><clipPath id="d03f3af615"><path d="M 1463.210938 1277.535156 L 1463.210938 1382.660156 C 1463.210938 1402.550781 1455.3125 1421.628906 1441.246094 1435.695312 C 1427.179688 1449.757812 1408.105469 1457.660156 1388.210938 1457.660156 L 111.945312 1457.660156 C 92.054688 1457.660156 72.976562 1449.757812 58.910156 1435.695312 C 44.847656 1421.628906 36.945312 1402.550781 36.945312 1382.660156 L 36.945312 1277.535156 C 36.945312 1257.644531 44.847656 1238.566406 58.910156 1224.5 C 72.976562 1210.4375 92.054688 1202.535156 111.945312 1202.535156 L 1388.210938 1202.535156 C 1408.105469 1202.535156 1427.179688 1210.4375 1441.246094 1224.5 C 1455.3125 1238.566406 1463.210938 1257.644531 1463.210938 1277.535156 Z M 1463.210938 1277.535156 " clip-rule="nonzero"/></clipPath><clipPath id="c5a67c6585"><path d="M 1 0.535156 L 1427.210938 0.535156 L 1427.210938 255.660156 L 1 255.660156 Z M 1 0.535156 " clip-rule="nonzero"/></clipPath><clipPath id="543f2c3506"><path d="M 1427.210938 75.535156 L 1427.210938 180.660156 C 1427.210938 200.550781 1419.3125 219.628906 1405.246094 233.695312 C 1391.179688 247.757812 1372.105469 255.660156 1352.210938 255.660156 L 75.945312 255.660156 C 56.054688 255.660156 36.976562 247.757812 22.910156 233.695312 C 8.847656 219.628906 0.945312 200.550781 0.945312 180.660156 L 0.945312 75.535156 C 0.945312 55.644531 8.847656 36.566406 22.910156 22.5 C 36.976562 8.4375 56.054688 0.535156 75.945312 0.535156 L 1352.210938 0.535156 C 1372.105469 0.535156 1391.179688 8.4375 1405.246094 22.5 C 1419.3125 36.566406 1427.210938 55.644531 1427.210938 75.535156 Z M 1427.210938 75.535156 " clip-rule="nonzero"/></clipPath><clipPath id="fae4a7325d"><rect x="0" width="1428" y="0" height="256"/></clipPath></defs><g clip-path="url(#d022620d7f)"><g clip-path="url(#b700015a9a)"><g clip-path="url(#59fad877e7)"><g transform="matrix(1, 0, 0, 1, 29, 83)"><g clip-path="url(#33da2be055)"><g clip-path="url(#7c8f1975eb)"><g clip-path="url(#7ae0be38a5)"><g clip-path="url(#31619620bd)"><path fill="#737373" d="M 203.203125 1131.5625 L -29.007812 968.96875 L 670.277344 -29.710938 L 902.484375 132.882812 Z M 203.203125 1131.5625 " fill-opacity="1" fill-rule="nonzero"/></g></g></g></g></g></g></g></g><g clip-path="url(#20101679b3)"><g clip-path="url(#33c77b1e52)"><g clip-path="url(#859fa1ea41)"><g transform="matrix(1, 0, 0, 1, 598, 71)"><g clip-path="url(#f59e0aefa9)"><g clip-path="url(#3d9ed5d873)"><g clip-path="url(#c4b97c9a39)"><g clip-path="url(#04d7ac40a1)"><path fill="#737373" d="M 901.988281 969.570312 L 669.78125 1132.164062 L -29.5 133.488281 L 202.707031 -29.105469 Z M 901.988281 969.570312 " fill-opacity="1" fill-rule="nonzero"/></g></g></g></g></g></g></g></g><g clip-path="url(#e156119107)"><g transform="matrix(1, 0, 0, 1, 325, 738)"><g clip-path="url(#eea6de422c)"><g clip-path="url(#ec1077ded5)"><path fill="#737373" d="M 0.667969 255.800781 L 0.667969 0.671875 L 317.582031 0.671875 L 317.582031 255.800781 Z M 0.667969 255.800781 " fill-opacity="1" fill-rule="nonzero"/></g></g></g></g><g clip-path="url(#88134009d2)"><g transform="matrix(1, 0, 0, 1, 858, 738)"><g clip-path="url(#a800a2bd0c)"><g clip-path="url(#461716fd7d)"><path fill="#737373" d="M 0.0273438 255.800781 L 0.0273438 0.671875 L 316.941406 0.671875 L 316.941406 255.800781 Z M 0.0273438 255.800781 " fill-opacity="1" fill-rule="nonzero"/></g></g></g></g><g clip-path="url(#100c2bcaac)"><g clip-path="url(#d03f3af615)"><g transform="matrix(1, 0, 0, 1, 36, 1202)"><g clip-path="url(#fae4a7325d)"><g clip-path="url(#c5a67c6585)"><g clip-path="url(#543f2c3506)"><path fill="#0097b2" d="M 1427.210938 0.535156 L 1427.210938 255.660156 L 1.09375 255.660156 L 1.09375 0.535156 Z M 1427.210938 0.535156 " fill-opacity="1" fill-rule="nonzero"/></g></g></g></g></g></g><path stroke-linecap="butt" transform="matrix(0.75, -0.000161999, 0.000161999, 0.75, 634.210995, 56.195022)" fill="none" stroke-linejoin="miter" d="M 23.632205 135.088836 C 114.36618 -7.698869 205.095353 -7.694897 295.830145 135.090339 " stroke="#737373" stroke-width="56" stroke-opacity="1" stroke-miterlimit="4"/><path stroke-linecap="butt" transform="matrix(-0.375288, -0.649353, 0.649353, -0.375288, 585.800383, 787.699952)" fill="none" stroke-linejoin="miter" d="M 16.865136 62.510571 C 50.133739 5.165227 83.399998 5.165311 116.663913 62.510822 " stroke="#737373" stroke-width="39" stroke-opacity="1" stroke-miterlimit="4"/><path stroke-linecap="butt" transform="matrix(-0.329567, 0.67371, -0.67371, -0.329567, 971.39707, 695.318656)" fill="none" stroke-linejoin="miter" d="M 16.874246 62.509402 C 50.078712 5.163485 83.285559 5.165585 116.490212 62.506345 " stroke="#737373" stroke-width="39" stroke-opacity="1" stroke-miterlimit="4"/><path stroke-linecap="butt" transform="matrix(0.75, 0, 0, 0.75, 704.950173, 456.601189)" fill="none" stroke-linejoin="miter" d="M 15.774771 53.656753 C 48.878941 8.115082 81.988319 8.115082 115.097696 53.656753 " stroke="#737373" stroke-width="39" stroke-opacity="1" stroke-miterlimit="4"/></svg>