<svg xmlns="http://www.w3.org/2000/svg" width="24" height="24" fill="none" viewBox="0 0 96 96">
  <desc>
    Storybook Icon Streamline Icon: https://streamlinehq.com
  </desc>
  <path fill="#ff4785" d="m13.192 87.618-2.912-77.59a4.726 4.726 0 0 1 4.428-4.894L80.703 1.01a4.726 4.726 0 0 1 5.021 4.717v84.548a4.726 4.726 0 0 1-4.938 4.721l-63.084-2.833a4.726 4.726 0 0 1-4.51-4.544"/>
  <mask id="a" width="76" height="94" x="10" y="1" maskUnits="userSpaceOnUse" style="mask-type:luminance">
    <path fill="#fff" d="m13.192 87.618-2.912-77.59a4.726 4.726 0 0 1 4.428-4.894L80.703 1.01a4.726 4.726 0 0 1 5.021 4.717v84.548a4.726 4.726 0 0 1-4.938 4.721l-63.084-2.833a4.726 4.726 0 0 1-4.51-4.544"/>
  </mask>
  <g mask="url(#a)">
    <path fill="#fff" d="m65.99 12.554.45-10.842L75.503 1l.39 11.181a.705.705 0 0 1-1.14.578l-3.495-2.753-4.138 3.14a.705.705 0 0 1-1.13-.592M54.397 36.43c0 1.839 12.386.957 14.048-.334 0-12.521-6.718-19.101-19.021-19.101S30.229 23.677 30.229 33.7c0 17.457 23.558 17.791 23.558 27.313 0 2.673-1.308 4.26-4.188 4.26-3.752 0-5.235-1.916-5.06-8.431 0-1.414-14.31-1.854-14.747 0-1.11 15.788 8.726 20.342 19.982 20.342 10.907 0 19.458-5.814 19.458-16.338 0-18.71-23.908-18.209-23.908-27.48 0-3.759 2.792-4.26 4.45-4.26 1.745 0 4.886.308 4.624 7.324"/>
  </g>
</svg>
