<svg xmlns="http://www.w3.org/2000/svg" viewBox="0 0 256 256">
  <path d="M 0 128 v 108 q 0 20 20 20 h 216 q 20 0 20 -20 V 20 q 0 -20 -20 -20 H 20 Q 0 0 0 20 Z m 90.5 -8.3 c 8.2 13.1 15.3 24.3 15.9 25 c 0.6 2.3 1.1 -5.6 1.1 -23.5 V 96.5 l 5.3 -0.3 l 5.2 -0.3 V 163 h -11.7 L 91 138.7 c -8.4 -13.3 -15.8 -24.7 -16.4 -25.4 c -0.8 -0.9 -1.1 5.5 -1.1 24 v 25.7 l -5.5 0 l -6 0 V 96 h 12.7 Z M 167 101 v 5 h -24 v 17.9 l 11.3 0.3 l 11.2 0.3 v 9 l -11.2 0.3 l -11.3 0.3 V 153 h 26 v 10 h -37 V 96 h 35 Z m 53.8 -0.3 l -0.3 4.8 l -9.2 0.3 l -9.3 0.3 V 163 h -11 v -56.9 l -9.2 -0.3 l -9.3 -0.3 l -0.3 -4.8 l -0.3 -4.7 h 49.2 Z m -170.6 52 c 2.6 2.3 2.4 7.8 -0.4 9.7 c -1.2 0.9 -3 1.6 -3.9 1.6 c -5.9 0 -6.9 -3.9 -6.9 -6.6 c 0 -5.3 7.2 -8.4 11.2 -4.7"/>
</svg>