<svg xmlns="http://www.w3.org/2000/svg" width="2000" height="2000"  viewBox="0 0 1500 1500">
  <defs>
    <clipPath id="a">
      <path d="M750 0C335.785 0 0 335.785 0 750s335.785 750 750 750 750-335.785 750-750S1164.215 0 750 0m0 0"/>
    </clipPath>
    <clipPath id="c">
      <path d="M0 0h1500v1500H0Zm0 0"/>
    </clipPath>
    <clipPath id="d">
      <path d="M750 0C335.785 0 0 335.785 0 750s335.785 750 750 750 750-335.785 750-750S1164.215 0 750 0m0 0"/>
    </clipPath>
    <clipPath id="b">
      <path d="M0 0h1500v1500H0z"/>
    </clipPath>
    <clipPath id="e">
      <path d="M168.008 412.07H1332v675.75H168.008Zm0 0"/>
    </clipPath>
  </defs>
  <g clip-path="url(#a)">
    <g clip-path="url(#b)">
      <g clip-path="url(#c)">
        <g clip-path="url(#d)">
          <path d="M-330-330h2160v2160H-330z"/>
        </g>
      </g>
    </g>
    <path fill="none" stroke="#000" stroke-width="51" d="M750 0C335.785 0 0 335.785 0 750s335.785 750 750 750 750-335.785 750-750S1164.215 0 750 0Zm0 0"/>
  </g>
  <g clip-path="url(#e)">
    <path fill="#c4c4c4" d="M1331.984 1070.133c-42.34 10.765-68.53.472-92.023-34.805l-167.106-231.195-24.156-32.012-195.144 263.973c-22.297 31.761-45.684 45.57-87.301 34.336l249.894-335.446L783.496 431.98c40.008-7.777 67.656-3.824 92.203 32.012l173.324 234.074 174.598-232.796c22.363-31.762 46.414-43.825 86.574-32.13l-90.207 119.602L1097.77 711.88c-14.551 18.183-12.551 30.633.84 48.187ZM168.304 729.379l20.438-100.54c55.653-198.972 283.719-281.652 441.004-158.71 91.918 72.312 114.762 174.598 110.215 289.18H221.844c-7.778 206.242 140.664 330.71 329.91 267.21 66.383-22.296 105.484-74.28 125.055-139.312 9.933-32.586 26.363-37.687 56.996-28.371-15.633 81.336-50.922 149.281-125.492 191.805-111.41 63.648-270.45 43.062-354.098-45.399-49.84-51.328-70.426-116.36-79.66-185.91-1.457-11.496-4.364-22.441-6.547-33.46.191-18.821.297-37.634.297-56.458Zm54.481-13.817h468.211c-3.058-149.132-95.918-255.062-222.832-255.96-139.309-1.09-239.344 102.316-245.387 255.96Zm0 0"/>
  </g>
</svg>
