<svg xmlns="http://www.w3.org/2000/svg" width="2000" height="2000" viewBox="0 0 1500 1500">
  <defs>
    <clipPath id="a">
      <path d="M750 0C335.785 0 0 335.785 0 750s335.785 750 750 750 750-335.785 750-750S1164.215 0 750 0m0 0"/>
    </clipPath>
    <clipPath id="c">
      <path d="M0 0h1500v1500H0Zm0 0"/>
    </clipPath>
    <clipPath id="d">
      <path d="M750 0C335.785 0 0 335.785 0 750s335.785 750 750 750 750-335.785 750-750S1164.215 0 750 0m0 0"/>
    </clipPath>
    <clipPath id="b">
      <path d="M0 0h1500v1500H0z"/>
    </clipPath>
    <clipPath id="e">
      <path d="M473.035 157h554.25v1192h-554.25Zm0 0"/>
    </clipPath>
  </defs>
  <g clip-path="url(#a)">
    <g clip-path="url(#b)">
      <g clip-path="url(#c)">
        <g clip-path="url(#d)">
          <path d="M-330-330h2160v2160H-330z"/>
        </g>
      </g>
    </g>
    <path fill="none" stroke="#000" stroke-width="51" d="M750 0C335.785 0 0 335.785 0 750s335.785 750 750 750 750-335.785 750-750S1164.215 0 750 0Zm0 0"/>
  </g>
  <g clip-path="url(#e)">
    <path fill="#c4c4c4" d="M856.434 289.895c-50.235-59.301-93.493-119.536-102.329-132.047a2.3 2.3 0 0 0-.746-.512 2.3 2.3 0 0 0-.882-.18c-.309 0-.602.063-.887.18a2.3 2.3 0 0 0-.742.512c-8.836 12.511-52.098 72.738-102.328 132.043-431.176 547.164 67.91 916.421 67.91 916.421l4.183 2.778c3.723 56.988 13.024 138.992 13.024 138.992h37.21s9.301-81.539 13.024-138.992l4.184-3.238c.468 0 499.55-368.797 68.379-915.961m-104.196 908.086s-22.328-18.997-28.375-28.727v-.922l26.977-595.82c0-1.848 2.793-1.848 2.793 0l26.976 595.82v.922c-6.05 9.73-28.37 28.727-28.37 28.727"/>
  </g>
</svg>
