<svg xmlns="http://www.w3.org/2000/svg" viewBox="0 0 52 64">
  <g fill="none">
    <path fill="#000" d="M51.273 3.923q.006.098.006.194v55.766c0 1.721-1.41 3.117-3.15 3.117q-.07 0-.14-.003l-42.04-1.869c-1.638-.073-2.945-1.376-3.006-2.997L1.003 6.955c-.065-1.69 1.245-3.123 2.95-3.228l34.474-2.133-.3 7.027a.46.46 0 0 0 .052.232l.043.068a.473.473 0 0 0 .659.09l2.757-2.07 2.33 1.815a.47.47 0 0 0 .307.1.467.467 0 0 0 .453-.481l-.261-7.155 3.466-.214c1.736-.107 3.231 1.199 3.34 2.917"/>
    <path fill="#c4c4c4" d="M30.403 24.369c0 1.212 8.254.631 9.362-.22 0-8.26-4.478-12.6-12.676-12.6-8.2 0-12.793 4.408-12.793 11.02 0 11.513 15.7 11.734 15.7 18.014 0 1.763-.872 2.81-2.791 2.81-2.5 0-3.489-1.264-3.373-5.561 0-.932-9.536-1.223-9.827 0-.74 10.413 5.815 13.417 13.316 13.417 7.269 0 12.967-3.835 12.967-10.776 0-12.34-15.932-12.01-15.932-18.125 0-2.48 1.86-2.81 2.965-2.81 1.163 0 3.256.203 3.082 4.83M38.127 8.62l.3-7.028 6.04-.374.26 7.157a.467.467 0 0 1-.452.48.47.47 0 0 1-.308-.099L41.638 6.94l-2.757 2.07a.473.473 0 0 1-.659-.089.46.46 0 0 1-.095-.3"/>
  </g>
</svg>
