<svg xmlns="http://www.w3.org/2000/svg" viewBox="56 36 535 535">
  <path d="M 116 36 h 414.4 c 9.3 0 60 7.5 60 60 v 414.4 c 0 9.3 -7.5 60 -60 60 H 116 c -9.3 0 -60 -7.5 -60 -60 V 96 c 0 -9.3 7.5 -60 60 -60 M 345 334.3 v -36.7 H 185.6 v 36.7 h 56.9 v 163.6 h 45.3 V 334.3 z m 18.1 159.3 c 7.3 3.7 15.9 6.5 25.9 8.4 s 20.5 2.8 31.5 2.8 c 10.8 0 21 -1 30.7 -3.1 s 18.2 -5.4 25.5 -10.1 s 13.1 -10.9 17.4 -18.4 s 6.4 -17 6.4 -28.2 c 0 -8.1 -1.2 -15.2 -3.7 -21.3 s -5.9 -11.5 -10.5 -16.3 s -10.1 -9 -16.5 -12.8 s -13.7 -7.3 -21.7 -10.7 c -5.9 -2.4 -11.2 -4.8 -15.9 -7.1 s -8.7 -4.6 -11.9 -7 s -5.8 -4.9 -7.6 -7.5 s -2.7 -5.7 -2.7 -9 c 0 -3.1 0.8 -5.8 2.4 -8.3 s 3.8 -4.6 6.7 -6.4 s 6.5 -3.1 10.7 -4.1 q 6.3 -1.5 14.1 -1.5 c 3.7 0 7.7 0.3 11.9 0.8 s 8.4 1.4 12.6 2.6 s 8.3 2.6 12.3 4.4 s 7.7 3.8 11 6.1 v -41.8 c -6.8 -2.6 -14.3 -4.5 -22.4 -5.8 s -17.4 -1.9 -27.9 -1.9 c -10.7 0 -20.8 1.1 -30.4 3.4 s -18 5.8 -25.2 10.7 s -13 11 -17.2 18.5 s -6.3 16.5 -6.3 26.9 c 0 13.3 3.9 24.7 11.6 34.1 s 19.5 17.4 35.2 23.9 c 6.2 2.5 11.9 5 17.3 7.4 q 8.1 3.6 13.8 7.5 c 3.8 2.6 7 5.4 9.2 8.5 s 3.4 6.6 3.4 10.5 c 0 2.9 -0.7 5.6 -2.1 8 s -3.5 4.6 -6.4 6.4 s -6.4 3.2 -10.7 4.3 s -9.3 1.5 -15 1.5 c -9.7 0 -19.4 -1.7 -28.9 -5.1 s -18.4 -8.5 -26.6 -15.3 v 44.7 z"/>
</svg>
