<svg xmlns="http://www.w3.org/2000/svg" width="2000" height="2000" viewBox="0 0 1500 1500">
  <defs>
    <clipPath id="a">
      <path d="M6.375 6.375h1487.25v1487.25H6.375Zm0 0"/>
    </clipPath>
    <clipPath id="c">
      <path d="M.375.375h1487.25v1487.25H.375Zm0 0"/>
    </clipPath>
    <clipPath id="b">
      <path d="M0 0h1488v1488H0z"/>
    </clipPath>
    <clipPath id="d">
      <path d="M312 312h876v876H312Zm0 0"/>
    </clipPath>
    <clipPath id="e">
      <path d="M749.996 72.55 1427.45 750l-677.453 677.453L72.543 750Zm0 0"/>
    </clipPath>
    <clipPath id="f">
      <path d="m1166.953 489.508-156.465-156.465a69 69 0 0 0-48.789-20.211 69 69 0 0 0-48.789 20.211L798.785 447.168a69 69 0 0 1-97.578 0L587.082 333.043a69 69 0 0 0-97.582 0L333.04 489.508a69 69 0 0 0 0 97.582l114.12 114.12a69 69 0 0 1 0 97.583L333.04 912.914a69 69 0 0 0 0 97.582l156.46 156.465a69.006 69.006 0 0 0 97.582 0l114.125-114.125a69 69 0 0 1 97.578 0L912.91 1166.96a69 69 0 0 0 97.578 0l156.465-156.465a69 69 0 0 0 0-97.582l-114.121-114.121a69 69 0 0 1 0-97.582l114.121-114.121a69 69 0 0 0 0-97.582m0 0"/>
    </clipPath>
    <clipPath id="h">
      <path d="M.719.719H875.28V875.28H.72Zm0 0"/>
    </clipPath>
    <clipPath id="i">
      <path d="M437.996-239.45 1115.45 438l-677.453 677.453L-239.457 438Zm0 0"/>
    </clipPath>
    <clipPath id="j">
      <path d="M854.953 177.508 698.488 21.043A69 69 0 0 0 649.7.832a69 69 0 0 0-48.789 20.211L486.785 135.168a69 69 0 0 1-97.578 0L275.082 21.043a69 69 0 0 0-97.582 0L21.04 177.508a69 69 0 0 0 0 97.582l114.12 114.12a69 69 0 0 1 0 97.583L21.04 600.914a69 69 0 0 0 0 97.582L177.5 854.961a69.006 69.006 0 0 0 97.582 0l114.125-114.125a69 69 0 0 1 97.578 0L600.91 854.96a69 69 0 0 0 97.578 0l156.465-156.465a69 69 0 0 0 0-97.582l-114.121-114.12a69 69 0 0 1 0-97.582L854.953 275.09a69 69 0 0 0 0-97.582m0 0"/>
    </clipPath>
    <clipPath id="g">
      <path d="M0 0h876v876H0z"/>
    </clipPath>
  </defs>
  <g clip-path="url(#a)">
    <g clip-path="url(#b)" transform="translate(6 6)">
      <g clip-path="url(#c)">
        <path fill="#c4c4c4" d="M.375.375h1487.25v1487.25H.375Zm0 0"/>
      </g>
    </g>
    <path fill="none" stroke="#000" stroke-width="202.5" d="M6.375 6.375h1487.25v1487.25H6.375Zm0 0"/>
  </g>
  <g clip-path="url(#d)">
    <g clip-path="url(#e)">
      <g clip-path="url(#f)">
        <g clip-path="url(#g)" transform="translate(312 312)">
          <g clip-path="url(#h)">
            <g clip-path="url(#i)">
              <g clip-path="url(#j)">
                <path fill="#fff" d="M437.996-239.45 1115.45 438l-677.453 677.453L-239.457 438Zm0 0"/>
              </g>
            </g>
          </g>
        </g>
      </g>
    </g>
  </g>
</svg>
