<svg xmlns="http://www.w3.org/2000/svg" width="2000" height="2000" viewBox="0 0 1500 1500">
  <defs>
    <clipPath id="a">
      <path d="M6.375 6.375h1487.25v1487.25H6.375Zm0 0"/>
    </clipPath>
    <clipPath id="c">
      <path d="M.375.375h1487.25v1487.25H.375Zm0 0"/>
    </clipPath>
    <clipPath id="b">
      <path d="M0 0h1488v1488H0z"/>
    </clipPath>
    <clipPath id="d">
      <path d="M311.79 330.406h876.874v220.73H311.79Zm0 0"/>
    </clipPath>
    <clipPath id="e">
      <path d="M378.54 330.406h742.92c36.868 0 66.75 29.887 66.75 66.75v87.23c0 36.864-29.882 66.75-66.75 66.75H378.54c-36.868 0-66.75-29.886-66.75-66.75v-87.23c0-36.863 29.882-66.75 66.75-66.75m0 0"/>
    </clipPath>
    <clipPath id="g">
      <path d="M.79.406H877v220.73H.79Zm0 0"/>
    </clipPath>
    <clipPath id="h">
      <path d="M67.54.406h742.92c36.868 0 66.75 29.887 66.75 66.75v87.23c0 36.864-29.882 66.75-66.75 66.75H67.54c-36.868 0-66.75-29.886-66.75-66.75v-87.23C.79 30.293 30.671.406 67.54.406m0 0"/>
    </clipPath>
    <clipPath id="f">
      <path d="M0 0h878v222H0z"/>
    </clipPath>
    <clipPath id="i">
      <path d="M311.79 639.637h876.874v220.726H311.79Zm0 0"/>
    </clipPath>
    <clipPath id="j">
      <path d="M382.29 639.637h735.42a70.495 70.495 0 0 1 70.5 70.5v79.726a70.495 70.495 0 0 1-70.5 70.5H382.29a70.495 70.495 0 0 1-70.5-70.5v-79.726a70.495 70.495 0 0 1 70.5-70.5m0 0"/>
    </clipPath>
    <clipPath id="l">
      <path d="M.79.637H877v220.726H.79Zm0 0"/>
    </clipPath>
    <clipPath id="m">
      <path d="M71.29.637h735.42a70.495 70.495 0 0 1 70.5 70.5v79.726a70.495 70.495 0 0 1-70.5 70.5H71.29a70.495 70.495 0 0 1-70.5-70.5V71.137a70.495 70.495 0 0 1 70.5-70.5m0 0"/>
    </clipPath>
    <clipPath id="k">
      <path d="M0 0h878v222H0z"/>
    </clipPath>
    <clipPath id="n">
      <path d="M311.79 948.863h876.874v220.73H311.79Zm0 0"/>
    </clipPath>
    <clipPath id="o">
      <path d="M382.29 948.863h735.42a70.5 70.5 0 0 1 70.5 70.5v79.73a70.5 70.5 0 0 1-70.5 70.5H382.29a70.5 70.5 0 0 1-70.5-70.5v-79.73a70.5 70.5 0 0 1 70.5-70.5m0 0"/>
    </clipPath>
    <clipPath id="q">
      <path d="M.79.863H877v220.73H.79Zm0 0"/>
    </clipPath>
    <clipPath id="r">
      <path d="M71.29.863h735.42a70.5 70.5 0 0 1 70.5 70.5v79.73a70.5 70.5 0 0 1-70.5 70.5H71.29a70.5 70.5 0 0 1-70.5-70.5v-79.73a70.5 70.5 0 0 1 70.5-70.5m0 0"/>
    </clipPath>
    <clipPath id="p">
      <path d="M0 0h878v222H0z"/>
    </clipPath>
  </defs>
  <g clip-path="url(#a)">
    <g clip-path="url(#b)" transform="translate(6 6)">
      <g clip-path="url(#c)">
        <path fill="#c4c4c4" d="M.375.375h1487.25v1487.25H.375Zm0 0"/>
      </g>
    </g>
    <path fill="none" stroke="#000" stroke-width="202.5" d="M6.375 6.375h1487.25v1487.25H6.375Zm0 0"/>
  </g>
  <g clip-path="url(#d)">
    <g clip-path="url(#e)">
      <g clip-path="url(#f)" transform="translate(311 330)">
        <g clip-path="url(#g)">
          <g clip-path="url(#h)">
            <path fill="#fff" d="M.79.406h876.015v220.73H.789Zm0 0"/>
          </g>
        </g>
      </g>
    </g>
  </g>
  <g clip-path="url(#i)">
    <g clip-path="url(#j)">
      <g clip-path="url(#k)" transform="translate(311 639)">
        <g clip-path="url(#l)">
          <g clip-path="url(#m)">
            <path fill="#fff" d="M.79.637h876.015v220.726H.789Zm0 0"/>
          </g>
        </g>
      </g>
    </g>
  </g>
  <g clip-path="url(#n)">
    <g clip-path="url(#o)">
      <g clip-path="url(#p)" transform="translate(311 948)">
        <g clip-path="url(#q)">
          <g clip-path="url(#r)">
            <path fill="#fff" d="M.79.863h876.015v220.73H.789Zm0 0"/>
          </g>
        </g>
      </g>
    </g>
  </g>
</svg>
