<svg xmlns="http://www.w3.org/2000/svg" xmlns:xlink="http://www.w3.org/1999/xlink" width="2000" zoomAndPan="magnify" viewBox="0 0 1500 1499.999933" height="2000" preserveAspectRatio="xMidYMid meet" version="1.0"><defs><clipPath id="e9e9553f43"><path d="M 6.375 6.375 L 1493.625 6.375 L 1493.625 1493.625 L 6.375 1493.625 Z M 6.375 6.375 " clip-rule="nonzero"/></clipPath><clipPath id="9bfe31155f"><path d="M 0.375 0.375 L 1487.625 0.375 L 1487.625 1487.625 L 0.375 1487.625 Z M 0.375 0.375 " clip-rule="nonzero"/></clipPath><clipPath id="410af60f18"><rect x="0" width="1488" y="0" height="1488"/></clipPath><clipPath id="96e1293f72"><path d="M 311.789062 330.40625 L 1188.664062 330.40625 L 1188.664062 551.136719 L 311.789062 551.136719 Z M 311.789062 330.40625 " clip-rule="nonzero"/></clipPath><clipPath id="67ad3bddb0"><path d="M 378.539062 330.40625 L 1121.460938 330.40625 C 1158.328125 330.40625 1188.210938 360.292969 1188.210938 397.15625 L 1188.210938 484.386719 C 1188.210938 521.25 1158.328125 551.136719 1121.460938 551.136719 L 378.539062 551.136719 C 341.671875 551.136719 311.789062 521.25 311.789062 484.386719 L 311.789062 397.15625 C 311.789062 360.292969 341.671875 330.40625 378.539062 330.40625 Z M 378.539062 330.40625 " clip-rule="nonzero"/></clipPath><clipPath id="248c5764f8"><path d="M 0.789062 0.40625 L 877 0.40625 L 877 221.136719 L 0.789062 221.136719 Z M 0.789062 0.40625 " clip-rule="nonzero"/></clipPath><clipPath id="92ca325268"><path d="M 67.539062 0.40625 L 810.460938 0.40625 C 847.328125 0.40625 877.210938 30.292969 877.210938 67.15625 L 877.210938 154.386719 C 877.210938 191.25 847.328125 221.136719 810.460938 221.136719 L 67.539062 221.136719 C 30.671875 221.136719 0.789062 191.25 0.789062 154.386719 L 0.789062 67.15625 C 0.789062 30.292969 30.671875 0.40625 67.539062 0.40625 Z M 67.539062 0.40625 " clip-rule="nonzero"/></clipPath><clipPath id="eaf09bb3b1"><rect x="0" width="878" y="0" height="222"/></clipPath><clipPath id="118767b00c"><path d="M 311.789062 639.636719 L 1188.664062 639.636719 L 1188.664062 860.363281 L 311.789062 860.363281 Z M 311.789062 639.636719 " clip-rule="nonzero"/></clipPath><clipPath id="4f60e12630"><path d="M 382.289062 639.636719 L 1117.710938 639.636719 C 1136.410156 639.636719 1154.339844 647.0625 1167.5625 660.285156 C 1180.785156 673.507812 1188.210938 691.4375 1188.210938 710.136719 L 1188.210938 789.863281 C 1188.210938 808.5625 1180.785156 826.492188 1167.5625 839.714844 C 1154.339844 852.9375 1136.410156 860.363281 1117.710938 860.363281 L 382.289062 860.363281 C 363.589844 860.363281 345.660156 852.9375 332.4375 839.714844 C 319.214844 826.492188 311.789062 808.5625 311.789062 789.863281 L 311.789062 710.136719 C 311.789062 691.4375 319.214844 673.507812 332.4375 660.285156 C 345.660156 647.0625 363.589844 639.636719 382.289062 639.636719 Z M 382.289062 639.636719 " clip-rule="nonzero"/></clipPath><clipPath id="a8f4815869"><path d="M 0.789062 0.636719 L 877 0.636719 L 877 221.363281 L 0.789062 221.363281 Z M 0.789062 0.636719 " clip-rule="nonzero"/></clipPath><clipPath id="2f68a51d89"><path d="M 71.289062 0.636719 L 806.710938 0.636719 C 825.410156 0.636719 843.339844 8.0625 856.5625 21.285156 C 869.785156 34.507812 877.210938 52.4375 877.210938 71.136719 L 877.210938 150.863281 C 877.210938 169.5625 869.785156 187.492188 856.5625 200.714844 C 843.339844 213.9375 825.410156 221.363281 806.710938 221.363281 L 71.289062 221.363281 C 52.589844 221.363281 34.660156 213.9375 21.4375 200.714844 C 8.214844 187.492188 0.789062 169.5625 0.789062 150.863281 L 0.789062 71.136719 C 0.789062 52.4375 8.214844 34.507812 21.4375 21.285156 C 34.660156 8.0625 52.589844 0.636719 71.289062 0.636719 Z M 71.289062 0.636719 " clip-rule="nonzero"/></clipPath><clipPath id="4f1b6dfbbf"><rect x="0" width="878" y="0" height="222"/></clipPath><clipPath id="9cdb5e16b5"><path d="M 311.789062 948.863281 L 1188.664062 948.863281 L 1188.664062 1169.59375 L 311.789062 1169.59375 Z M 311.789062 948.863281 " clip-rule="nonzero"/></clipPath><clipPath id="a63f0e29ce"><path d="M 382.289062 948.863281 L 1117.710938 948.863281 C 1136.410156 948.863281 1154.339844 956.292969 1167.5625 969.511719 C 1180.785156 982.734375 1188.210938 1000.667969 1188.210938 1019.363281 L 1188.210938 1099.09375 C 1188.210938 1117.789062 1180.785156 1135.722656 1167.5625 1148.945312 C 1154.339844 1162.164062 1136.410156 1169.59375 1117.710938 1169.59375 L 382.289062 1169.59375 C 363.589844 1169.59375 345.660156 1162.164062 332.4375 1148.945312 C 319.214844 1135.722656 311.789062 1117.789062 311.789062 1099.09375 L 311.789062 1019.363281 C 311.789062 1000.667969 319.214844 982.734375 332.4375 969.511719 C 345.660156 956.292969 363.589844 948.863281 382.289062 948.863281 Z M 382.289062 948.863281 " clip-rule="nonzero"/></clipPath><clipPath id="56546b4b3b"><path d="M 0.789062 0.863281 L 877 0.863281 L 877 221.59375 L 0.789062 221.59375 Z M 0.789062 0.863281 " clip-rule="nonzero"/></clipPath><clipPath id="d85cf06ccd"><path d="M 71.289062 0.863281 L 806.710938 0.863281 C 825.410156 0.863281 843.339844 8.292969 856.5625 21.511719 C 869.785156 34.734375 877.210938 52.667969 877.210938 71.363281 L 877.210938 151.09375 C 877.210938 169.789062 869.785156 187.722656 856.5625 200.945312 C 843.339844 214.164062 825.410156 221.59375 806.710938 221.59375 L 71.289062 221.59375 C 52.589844 221.59375 34.660156 214.164062 21.4375 200.945312 C 8.214844 187.722656 0.789062 169.789062 0.789062 151.09375 L 0.789062 71.363281 C 0.789062 52.667969 8.214844 34.734375 21.4375 21.511719 C 34.660156 8.292969 52.589844 0.863281 71.289062 0.863281 Z M 71.289062 0.863281 " clip-rule="nonzero"/></clipPath><clipPath id="bbe67e7d38"><rect x="0" width="878" y="0" height="222"/></clipPath></defs><g clip-path="url(#e9e9553f43)"><g transform="matrix(1, 0, 0, 1, 6, 6)"><g clip-path="url(#410af60f18)"><g clip-path="url(#9bfe31155f)"><path fill="#c4c4c4" d="M 0.375 0.375 L 1487.625 0.375 L 1487.625 1487.625 L 0.375 1487.625 Z M 0.375 0.375 " fill-opacity="1" fill-rule="nonzero"/></g></g></g><path stroke-linecap="butt" transform="matrix(0.75, 0, 0, 0.75, 6.375033, 6.374979)" fill="none" stroke-linejoin="miter" d="M -0.0000437345 0.0000273988 L 1983.000127 0.0000273988 L 1983.000127 1983.000198 L -0.0000437345 1983.000198 Z M -0.0000437345 0.0000273988 " stroke="#000000" stroke-width="270" stroke-opacity="1" stroke-miterlimit="4"/></g><g clip-path="url(#96e1293f72)"><g clip-path="url(#67ad3bddb0)"><g transform="matrix(1, 0, 0, 1, 311, 330)"><g clip-path="url(#eaf09bb3b1)"><g clip-path="url(#248c5764f8)"><g clip-path="url(#92ca325268)"><path fill="#ffffff" d="M 0.789062 0.40625 L 876.804688 0.40625 L 876.804688 221.136719 L 0.789062 221.136719 Z M 0.789062 0.40625 " fill-opacity="1" fill-rule="nonzero"/></g></g></g></g></g></g><g clip-path="url(#118767b00c)"><g clip-path="url(#4f60e12630)"><g transform="matrix(1, 0, 0, 1, 311, 639)"><g clip-path="url(#4f1b6dfbbf)"><g clip-path="url(#a8f4815869)"><g clip-path="url(#2f68a51d89)"><path fill="#ffffff" d="M 0.789062 0.636719 L 876.804688 0.636719 L 876.804688 221.363281 L 0.789062 221.363281 Z M 0.789062 0.636719 " fill-opacity="1" fill-rule="nonzero"/></g></g></g></g></g></g><g clip-path="url(#9cdb5e16b5)"><g clip-path="url(#a63f0e29ce)"><g transform="matrix(1, 0, 0, 1, 311, 948)"><g clip-path="url(#bbe67e7d38)"><g clip-path="url(#56546b4b3b)"><g clip-path="url(#d85cf06ccd)"><path fill="#ffffff" d="M 0.789062 0.863281 L 876.804688 0.863281 L 876.804688 221.59375 L 0.789062 221.59375 Z M 0.789062 0.863281 " fill-opacity="1" fill-rule="nonzero"/></g></g></g></g></g></g></svg>