<svg xmlns="http://www.w3.org/2000/svg" width="1452" height="1164" fill="none" viewBox="0 0 1452 1164">
  <g style="mix-blend-mode:color-burn">
    <path stroke="#14171f" stroke-opacity=".09" d="M6 6h96v96H6z"/>
    <path stroke="#14171f" stroke-opacity=".15" d="M6 0v6m0 0h6M6 6v6m0-6H0m6 90v6m0 0h6m-6 0v6m0-6H0M102 0v6m0 0h6m-6 0v6m0-6h-6m6 90v6m0 0h6m-6 0v6m0-6h-6"/>
    <path fill="#14171f" d="M53 54h1v1h-1zm0 47.5h1v1h-1zm0-96h1v1h-1z"/>
    <path fill="#14171f" d="M53 54h1v1h-1zm48.5 0h1v1h-1zm-96 0h1v1h-1zM53 101.5h1v1h-1zm0-96h1v1h-1z"/>
    <path stroke="#14171f" stroke-opacity=".09" d="M102 6h96v96h-96z"/>
    <path stroke="#14171f" stroke-opacity=".15" d="M102 0v6m0 0h6m-6 0v6m0-6h-6m6 90v6m0 0h6m-6 0v6m0-6h-6M198 0v6m0 0h6m-6 0v6m0-6h-6m6 90v6m0 0h6m-6 0v6m0-6h-6"/>
    <path fill="#14171f" d="M149 54h1v1h-1zm0 47.5h1v1h-1zm0-96h1v1h-1z"/>
    <path fill="#14171f" d="M149 54h1v1h-1zm48.5 0h1v1h-1zm-96 0h1v1h-1zm47.5 47.5h1v1h-1zm0-96h1v1h-1z"/>
    <path stroke="#14171f" stroke-opacity=".09" d="M198 6h96v96h-96z"/>
    <path stroke="#14171f" stroke-opacity=".15" d="M198 0v6m0 0h6m-6 0v6m0-6h-6m6 90v6m0 0h6m-6 0v6m0-6h-6M294 0v6m0 0h6m-6 0v6m0-6h-6m6 90v6m0 0h6m-6 0v6m0-6h-6"/>
    <path fill="#14171f" d="M245 54h1v1h-1zm0 47.5h1v1h-1zm0-96h1v1h-1z"/>
    <path fill="#14171f" d="M245 54h1v1h-1zm48.5 0h1v1h-1zm-96 0h1v1h-1zm47.5 47.5h1v1h-1zm0-96h1v1h-1z"/>
    <path stroke="#14171f" stroke-opacity=".09" d="M294 6h96v96h-96z"/>
    <path stroke="#14171f" stroke-opacity=".15" d="M294 0v6m0 0h6m-6 0v6m0-6h-6m6 90v6m0 0h6m-6 0v6m0-6h-6M390 0v6m0 0h6m-6 0v6m0-6h-6m6 90v6m0 0h6m-6 0v6m0-6h-6"/>
    <path fill="#14171f" d="M341 54h1v1h-1zm0 47.5h1v1h-1zm0-96h1v1h-1z"/>
    <path fill="#14171f" d="M341 54h1v1h-1zm48.5 0h1v1h-1zm-96 0h1v1h-1zm47.5 47.5h1v1h-1zm0-96h1v1h-1z"/>
    <path stroke="#14171f" stroke-opacity=".09" d="M390 6h96v96h-96z"/>
    <path stroke="#14171f" stroke-opacity=".15" d="M390 0v6m0 0h6m-6 0v6m0-6h-6m6 90v6m0 0h6m-6 0v6m0-6h-6M486 0v6m0 0h6m-6 0v6m0-6h-6m6 90v6m0 0h6m-6 0v6m0-6h-6"/>
    <path fill="#14171f" d="M437 54h1v1h-1zm0 47.5h1v1h-1zm0-96h1v1h-1z"/>
    <path fill="#14171f" d="M437 54h1v1h-1zm48.5 0h1v1h-1zm-96 0h1v1h-1zm47.5 47.5h1v1h-1zm0-96h1v1h-1z"/>
    <path stroke="#14171f" stroke-opacity=".09" d="M486 6h96v96h-96z"/>
    <path stroke="#14171f" stroke-opacity=".15" d="M486 0v6m0 0h6m-6 0v6m0-6h-6m6 90v6m0 0h6m-6 0v6m0-6h-6M582 0v6m0 0h6m-6 0v6m0-6h-6m6 90v6m0 0h6m-6 0v6m0-6h-6"/>
    <path fill="#14171f" d="M533 54h1v1h-1zm0 47.5h1v1h-1zm0-96h1v1h-1z"/>
    <path fill="#14171f" d="M533 54h1v1h-1zm48.5 0h1v1h-1zm-96 0h1v1h-1zm47.5 47.5h1v1h-1zm0-96h1v1h-1z"/>
    <path stroke="#14171f" stroke-opacity=".09" d="M582 6h96v96h-96z"/>
    <path stroke="#14171f" stroke-opacity=".15" d="M582 0v6m0 0h6m-6 0v6m0-6h-6m6 90v6m0 0h6m-6 0v6m0-6h-6M678 0v6m0 0h6m-6 0v6m0-6h-6m6 90v6m0 0h6m-6 0v6m0-6h-6"/>
    <path fill="#14171f" d="M629 54h1v1h-1zm0 47.5h1v1h-1zm0-96h1v1h-1z"/>
    <path fill="#14171f" d="M629 54h1v1h-1zm48.5 0h1v1h-1zm-96 0h1v1h-1zm47.5 47.5h1v1h-1zm0-96h1v1h-1z"/>
    <path stroke="#14171f" stroke-opacity=".09" d="M678 6h96v96h-96z"/>
    <path stroke="#14171f" stroke-opacity=".15" d="M678 0v6m0 0h6m-6 0v6m0-6h-6m6 90v6m0 0h6m-6 0v6m0-6h-6M774 0v6m0 0h6m-6 0v6m0-6h-6m6 90v6m0 0h6m-6 0v6m0-6h-6"/>
    <path fill="#14171f" d="M725 54h1v1h-1zm0 47.5h1v1h-1zm0-96h1v1h-1z"/>
    <path fill="#14171f" d="M725 54h1v1h-1zm48.5 0h1v1h-1zm-96 0h1v1h-1zm47.5 47.5h1v1h-1zm0-96h1v1h-1z"/>
    <path stroke="#14171f" stroke-opacity=".09" d="M774 6h96v96h-96z"/>
    <path stroke="#14171f" stroke-opacity=".15" d="M774 0v6m0 0h6m-6 0v6m0-6h-6m6 90v6m0 0h6m-6 0v6m0-6h-6M870 0v6m0 0h6m-6 0v6m0-6h-6m6 90v6m0 0h6m-6 0v6m0-6h-6"/>
    <path fill="#14171f" d="M821 54h1v1h-1zm0 47.5h1v1h-1zm0-96h1v1h-1z"/>
    <path fill="#14171f" d="M821 54h1v1h-1zm48.5 0h1v1h-1zm-96 0h1v1h-1zm47.5 47.5h1v1h-1zm0-96h1v1h-1z"/>
    <path stroke="#14171f" stroke-opacity=".09" d="M870 6h96v96h-96z"/>
    <path stroke="#14171f" stroke-opacity=".15" d="M870 0v6m0 0h6m-6 0v6m0-6h-6m6 90v6m0 0h6m-6 0v6m0-6h-6M966 0v6m0 0h6m-6 0v6m0-6h-6m6 90v6m0 0h6m-6 0v6m0-6h-6"/>
    <path fill="#14171f" d="M917 54h1v1h-1zm0 47.5h1v1h-1zm0-96h1v1h-1z"/>
    <path fill="#14171f" d="M917 54h1v1h-1zm48.5 0h1v1h-1zm-96 0h1v1h-1zm47.5 47.5h1v1h-1zm0-96h1v1h-1z"/>
    <path stroke="#14171f" stroke-opacity=".09" d="M966 6h96v96h-96z"/>
    <path stroke="#14171f" stroke-opacity=".15" d="M966 0v6m0 0h6m-6 0v6m0-6h-6m6 90v6m0 0h6m-6 0v6m0-6h-6M1062 0v6m0 0h6m-6 0v6m0-6h-6m6 90v6m0 0h6m-6 0v6m0-6h-6"/>
    <path fill="#14171f" d="M1013 54h1v1h-1zm0 47.5h1v1h-1zm0-96h1v1h-1z"/>
    <path fill="#14171f" d="M1013 54h1v1h-1zm48.5 0h1v1h-1zm-96 0h1v1h-1zm47.5 47.5h1v1h-1zm0-96h1v1h-1z"/>
    <path stroke="#14171f" stroke-opacity=".09" d="M1062 6h96v96h-96z"/>
    <path stroke="#14171f" stroke-opacity=".15" d="M1062 0v6m0 0h6m-6 0v6m0-6h-6m6 90v6m0 0h6m-6 0v6m0-6h-6M1158 0v6m0 0h6m-6 0v6m0-6h-6m6 90v6m0 0h6m-6 0v6m0-6h-6"/>
    <path fill="#14171f" d="M1109 54h1v1h-1zm0 47.5h1v1h-1zm0-96h1v1h-1z"/>
    <path fill="#14171f" d="M1109 54h1v1h-1zm48.5 0h1v1h-1zm-96 0h1v1h-1zm47.5 47.5h1v1h-1zm0-96h1v1h-1z"/>
    <path stroke="#14171f" stroke-opacity=".09" d="M1158 6h96v96h-96z"/>
    <path stroke="#14171f" stroke-opacity=".15" d="M1158 0v6m0 0h6m-6 0v6m0-6h-6m6 90v6m0 0h6m-6 0v6m0-6h-6M1254 0v6m0 0h6m-6 0v6m0-6h-6m6 90v6m0 0h6m-6 0v6m0-6h-6"/>
    <path fill="#14171f" d="M1205 54h1v1h-1zm0 47.5h1v1h-1zm0-96h1v1h-1z"/>
    <path fill="#14171f" d="M1205 54h1v1h-1zm48.5 0h1v1h-1zm-96 0h1v1h-1zm47.5 47.5h1v1h-1zm0-96h1v1h-1z"/>
    <path stroke="#14171f" stroke-opacity=".09" d="M1254 6h96v96h-96z"/>
    <path stroke="#14171f" stroke-opacity=".15" d="M1254 0v6m0 0h6m-6 0v6m0-6h-6m6 90v6m0 0h6m-6 0v6m0-6h-6M1350 0v6m0 0h6m-6 0v6m0-6h-6m6 90v6m0 0h6m-6 0v6m0-6h-6"/>
    <path fill="#14171f" d="M1301 54h1v1h-1zm0 47.5h1v1h-1zm0-96h1v1h-1z"/>
    <path fill="#14171f" d="M1301 54h1v1h-1zm48.5 0h1v1h-1zm-96 0h1v1h-1zm47.5 47.5h1v1h-1zm0-96h1v1h-1z"/>
    <path stroke="#14171f" stroke-opacity=".09" d="M1350 6h96v96h-96z"/>
    <path stroke="#14171f" stroke-opacity=".15" d="M1350 0v6m0 0h6m-6 0v6m0-6h-6m6 90v6m0 0h6m-6 0v6m0-6h-6M1446 0v6m0 0h6m-6 0v6m0-6h-6m6 90v6m0 0h6m-6 0v6m0-6h-6"/>
    <path fill="#14171f" d="M1397 54h1v1h-1zm0 47.5h1v1h-1zm0-96h1v1h-1z"/>
    <path fill="#14171f" d="M1397 54h1v1h-1zm48.5 0h1v1h-1zm-96 0h1v1h-1zm47.5 47.5h1v1h-1zm0-96h1v1h-1z"/>
    <path stroke="#14171f" stroke-opacity=".09" d="M6 102h96v96H6z"/>
    <path stroke="#14171f" stroke-opacity=".15" d="M6 96v6m0 0h6m-6 0v6m0-6H0m6 90v6m0 0h6m-6 0v6m0-6H0M102 96v6m0 0h6m-6 0v6m0-6h-6m6 90v6m0 0h6m-6 0v6m0-6h-6"/>
    <path fill="#14171f" d="M53 150h1v1h-1zm0 47.5h1v1h-1zm0-96h1v1h-1z"/>
    <path fill="#14171f" d="M53 150h1v1h-1zm48.5 0h1v1h-1zm-96 0h1v1h-1zM53 197.5h1v1h-1zm0-96h1v1h-1z"/>
    <path stroke="#14171f" stroke-opacity=".09" d="M102 102h96v96h-96z"/>
    <path stroke="#14171f" stroke-opacity=".15" d="M102 96v6m0 0h6m-6 0v6m0-6h-6m6 90v6m0 0h6m-6 0v6m0-6h-6M198 96v6m0 0h6m-6 0v6m0-6h-6m6 90v6m0 0h6m-6 0v6m0-6h-6"/>
    <path fill="#14171f" d="M149 150h1v1h-1zm0 47.5h1v1h-1zm0-96h1v1h-1z"/>
    <path fill="#14171f" d="M149 150h1v1h-1zm48.5 0h1v1h-1zm-96 0h1v1h-1zm47.5 47.5h1v1h-1zm0-96h1v1h-1z"/>
    <path stroke="#14171f" stroke-opacity=".09" d="M198 102h96v96h-96z"/>
    <path stroke="#14171f" stroke-opacity=".15" d="M198 96v6m0 0h6m-6 0v6m0-6h-6m6 90v6m0 0h6m-6 0v6m0-6h-6M294 96v6m0 0h6m-6 0v6m0-6h-6m6 90v6m0 0h6m-6 0v6m0-6h-6"/>
    <path fill="#14171f" d="M245 150h1v1h-1zm0 47.5h1v1h-1zm0-96h1v1h-1z"/>
    <path fill="#14171f" d="M245 150h1v1h-1zm48.5 0h1v1h-1zm-96 0h1v1h-1zm47.5 47.5h1v1h-1zm0-96h1v1h-1z"/>
    <path stroke="#14171f" stroke-opacity=".09" d="M294 102h96v96h-96z"/>
    <path stroke="#14171f" stroke-opacity=".15" d="M294 96v6m0 0h6m-6 0v6m0-6h-6m6 90v6m0 0h6m-6 0v6m0-6h-6M390 96v6m0 0h6m-6 0v6m0-6h-6m6 90v6m0 0h6m-6 0v6m0-6h-6"/>
    <path fill="#14171f" d="M341 150h1v1h-1zm0 47.5h1v1h-1zm0-96h1v1h-1z"/>
    <path fill="#14171f" d="M341 150h1v1h-1zm48.5 0h1v1h-1zm-96 0h1v1h-1zm47.5 47.5h1v1h-1zm0-96h1v1h-1z"/>
    <path stroke="#14171f" stroke-opacity=".09" d="M390 102h96v96h-96z"/>
    <path stroke="#14171f" stroke-opacity=".15" d="M390 96v6m0 0h6m-6 0v6m0-6h-6m6 90v6m0 0h6m-6 0v6m0-6h-6M486 96v6m0 0h6m-6 0v6m0-6h-6m6 90v6m0 0h6m-6 0v6m0-6h-6"/>
    <path fill="#14171f" d="M437 150h1v1h-1zm0 47.5h1v1h-1zm0-96h1v1h-1z"/>
    <path fill="#14171f" d="M437 150h1v1h-1zm48.5 0h1v1h-1zm-96 0h1v1h-1zm47.5 47.5h1v1h-1zm0-96h1v1h-1z"/>
    <path stroke="#14171f" stroke-opacity=".09" d="M486 102h96v96h-96z"/>
    <path stroke="#14171f" stroke-opacity=".15" d="M486 96v6m0 0h6m-6 0v6m0-6h-6m6 90v6m0 0h6m-6 0v6m0-6h-6M582 96v6m0 0h6m-6 0v6m0-6h-6m6 90v6m0 0h6m-6 0v6m0-6h-6"/>
    <path fill="#14171f" d="M533 150h1v1h-1zm0 47.5h1v1h-1zm0-96h1v1h-1z"/>
    <path fill="#14171f" d="M533 150h1v1h-1zm48.5 0h1v1h-1zm-96 0h1v1h-1zm47.5 47.5h1v1h-1zm0-96h1v1h-1z"/>
    <path stroke="#14171f" stroke-opacity=".09" d="M582 102h96v96h-96z"/>
    <path stroke="#14171f" stroke-opacity=".15" d="M582 96v6m0 0h6m-6 0v6m0-6h-6m6 90v6m0 0h6m-6 0v6m0-6h-6M678 96v6m0 0h6m-6 0v6m0-6h-6m6 90v6m0 0h6m-6 0v6m0-6h-6"/>
    <path fill="#14171f" d="M629 150h1v1h-1zm0 47.5h1v1h-1zm0-96h1v1h-1z"/>
    <path fill="#14171f" d="M629 150h1v1h-1zm48.5 0h1v1h-1zm-96 0h1v1h-1zm47.5 47.5h1v1h-1zm0-96h1v1h-1z"/>
    <path stroke="#14171f" stroke-opacity=".09" d="M678 102h96v96h-96z"/>
    <path stroke="#14171f" stroke-opacity=".15" d="M678 96v6m0 0h6m-6 0v6m0-6h-6m6 90v6m0 0h6m-6 0v6m0-6h-6M774 96v6m0 0h6m-6 0v6m0-6h-6m6 90v6m0 0h6m-6 0v6m0-6h-6"/>
    <path fill="#14171f" d="M725 150h1v1h-1zm0 47.5h1v1h-1zm0-96h1v1h-1z"/>
    <path fill="#14171f" d="M725 150h1v1h-1zm48.5 0h1v1h-1zm-96 0h1v1h-1zm47.5 47.5h1v1h-1zm0-96h1v1h-1z"/>
    <path stroke="#14171f" stroke-opacity=".09" d="M774 102h96v96h-96z"/>
    <path stroke="#14171f" stroke-opacity=".15" d="M774 96v6m0 0h6m-6 0v6m0-6h-6m6 90v6m0 0h6m-6 0v6m0-6h-6M870 96v6m0 0h6m-6 0v6m0-6h-6m6 90v6m0 0h6m-6 0v6m0-6h-6"/>
    <path fill="#14171f" d="M821 150h1v1h-1zm0 47.5h1v1h-1zm0-96h1v1h-1z"/>
    <path fill="#14171f" d="M821 150h1v1h-1zm48.5 0h1v1h-1zm-96 0h1v1h-1zm47.5 47.5h1v1h-1zm0-96h1v1h-1z"/>
    <path stroke="#14171f" stroke-opacity=".09" d="M870 102h96v96h-96z"/>
    <path stroke="#14171f" stroke-opacity=".15" d="M870 96v6m0 0h6m-6 0v6m0-6h-6m6 90v6m0 0h6m-6 0v6m0-6h-6M966 96v6m0 0h6m-6 0v6m0-6h-6m6 90v6m0 0h6m-6 0v6m0-6h-6"/>
    <path fill="#14171f" d="M917 150h1v1h-1zm0 47.5h1v1h-1zm0-96h1v1h-1z"/>
    <path fill="#14171f" d="M917 150h1v1h-1zm48.5 0h1v1h-1zm-96 0h1v1h-1zm47.5 47.5h1v1h-1zm0-96h1v1h-1z"/>
    <path stroke="#14171f" stroke-opacity=".09" d="M966 102h96v96h-96z"/>
    <path stroke="#14171f" stroke-opacity=".15" d="M966 96v6m0 0h6m-6 0v6m0-6h-6m6 90v6m0 0h6m-6 0v6m0-6h-6m102-102v6m0 0h6m-6 0v6m0-6h-6m6 90v6m0 0h6m-6 0v6m0-6h-6"/>
    <path fill="#14171f" d="M1013 150h1v1h-1zm0 47.5h1v1h-1zm0-96h1v1h-1z"/>
    <path fill="#14171f" d="M1013 150h1v1h-1zm48.5 0h1v1h-1zm-96 0h1v1h-1zm47.5 47.5h1v1h-1zm0-96h1v1h-1z"/>
    <path stroke="#14171f" stroke-opacity=".09" d="M1062 102h96v96h-96z"/>
    <path stroke="#14171f" stroke-opacity=".15" d="M1062 96v6m0 0h6m-6 0v6m0-6h-6m6 90v6m0 0h6m-6 0v6m0-6h-6m102-102v6m0 0h6m-6 0v6m0-6h-6m6 90v6m0 0h6m-6 0v6m0-6h-6"/>
    <path fill="#14171f" d="M1109 150h1v1h-1zm0 47.5h1v1h-1zm0-96h1v1h-1z"/>
    <path fill="#14171f" d="M1109 150h1v1h-1zm48.5 0h1v1h-1zm-96 0h1v1h-1zm47.5 47.5h1v1h-1zm0-96h1v1h-1z"/>
    <path stroke="#14171f" stroke-opacity=".09" d="M1158 102h96v96h-96z"/>
    <path stroke="#14171f" stroke-opacity=".15" d="M1158 96v6m0 0h6m-6 0v6m0-6h-6m6 90v6m0 0h6m-6 0v6m0-6h-6m102-102v6m0 0h6m-6 0v6m0-6h-6m6 90v6m0 0h6m-6 0v6m0-6h-6"/>
    <path fill="#14171f" d="M1205 150h1v1h-1zm0 47.5h1v1h-1zm0-96h1v1h-1z"/>
    <path fill="#14171f" d="M1205 150h1v1h-1zm48.5 0h1v1h-1zm-96 0h1v1h-1zm47.5 47.5h1v1h-1zm0-96h1v1h-1z"/>
    <path stroke="#14171f" stroke-opacity=".09" d="M1254 102h96v96h-96z"/>
    <path stroke="#14171f" stroke-opacity=".15" d="M1254 96v6m0 0h6m-6 0v6m0-6h-6m6 90v6m0 0h6m-6 0v6m0-6h-6m102-102v6m0 0h6m-6 0v6m0-6h-6m6 90v6m0 0h6m-6 0v6m0-6h-6"/>
    <path fill="#14171f" d="M1301 150h1v1h-1zm0 47.5h1v1h-1zm0-96h1v1h-1z"/>
    <path fill="#14171f" d="M1301 150h1v1h-1zm48.5 0h1v1h-1zm-96 0h1v1h-1zm47.5 47.5h1v1h-1zm0-96h1v1h-1z"/>
    <path stroke="#14171f" stroke-opacity=".09" d="M1350 102h96v96h-96z"/>
    <path stroke="#14171f" stroke-opacity=".15" d="M1350 96v6m0 0h6m-6 0v6m0-6h-6m6 90v6m0 0h6m-6 0v6m0-6h-6m102-102v6m0 0h6m-6 0v6m0-6h-6m6 90v6m0 0h6m-6 0v6m0-6h-6"/>
    <path fill="#14171f" d="M1397 150h1v1h-1zm0 47.5h1v1h-1zm0-96h1v1h-1z"/>
    <path fill="#14171f" d="M1397 150h1v1h-1zm48.5 0h1v1h-1zm-96 0h1v1h-1zm47.5 47.5h1v1h-1zm0-96h1v1h-1z"/>
    <path stroke="#14171f" stroke-opacity=".09" d="M6 198h96v96H6z"/>
    <path stroke="#14171f" stroke-opacity=".15" d="M6 192v6m0 0h6m-6 0v6m0-6H0m6 90v6m0 0h6m-6 0v6m0-6H0m102-102v6m0 0h6m-6 0v6m0-6h-6m6 90v6m0 0h6m-6 0v6m0-6h-6"/>
    <path fill="#14171f" d="M53 246h1v1h-1zm0 47.5h1v1h-1zm0-96h1v1h-1z"/>
    <path fill="#14171f" d="M53 246h1v1h-1zm48.5 0h1v1h-1zm-96 0h1v1h-1zM53 293.5h1v1h-1zm0-96h1v1h-1z"/>
    <path stroke="#14171f" stroke-opacity=".09" d="M102 198h96v96h-96z"/>
    <path stroke="#14171f" stroke-opacity=".15" d="M102 192v6m0 0h6m-6 0v6m0-6h-6m6 90v6m0 0h6m-6 0v6m0-6h-6m102-102v6m0 0h6m-6 0v6m0-6h-6m6 90v6m0 0h6m-6 0v6m0-6h-6"/>
    <path fill="#14171f" d="M149 246h1v1h-1zm0 47.5h1v1h-1zm0-96h1v1h-1z"/>
    <path fill="#14171f" d="M149 246h1v1h-1zm48.5 0h1v1h-1zm-96 0h1v1h-1zm47.5 47.5h1v1h-1zm0-96h1v1h-1z"/>
    <path stroke="#14171f" stroke-opacity=".09" d="M198 198h96v96h-96z"/>
    <path stroke="#14171f" stroke-opacity=".15" d="M198 192v6m0 0h6m-6 0v6m0-6h-6m6 90v6m0 0h6m-6 0v6m0-6h-6m102-102v6m0 0h6m-6 0v6m0-6h-6m6 90v6m0 0h6m-6 0v6m0-6h-6"/>
    <path fill="#14171f" d="M245 246h1v1h-1zm0 47.5h1v1h-1zm0-96h1v1h-1z"/>
    <path fill="#14171f" d="M245 246h1v1h-1zm48.5 0h1v1h-1zm-96 0h1v1h-1zm47.5 47.5h1v1h-1zm0-96h1v1h-1z"/>
    <path stroke="#14171f" stroke-opacity=".09" d="M294 198h96v96h-96z"/>
    <path stroke="#14171f" stroke-opacity=".15" d="M294 192v6m0 0h6m-6 0v6m0-6h-6m6 90v6m0 0h6m-6 0v6m0-6h-6m102-102v6m0 0h6m-6 0v6m0-6h-6m6 90v6m0 0h6m-6 0v6m0-6h-6"/>
    <path fill="#14171f" d="M341 246h1v1h-1zm0 47.5h1v1h-1zm0-96h1v1h-1z"/>
    <path fill="#14171f" d="M341 246h1v1h-1zm48.5 0h1v1h-1zm-96 0h1v1h-1zm47.5 47.5h1v1h-1zm0-96h1v1h-1z"/>
    <path stroke="#14171f" stroke-opacity=".09" d="M390 198h96v96h-96z"/>
    <path stroke="#14171f" stroke-opacity=".15" d="M390 192v6m0 0h6m-6 0v6m0-6h-6m6 90v6m0 0h6m-6 0v6m0-6h-6m102-102v6m0 0h6m-6 0v6m0-6h-6m6 90v6m0 0h6m-6 0v6m0-6h-6"/>
    <path fill="#14171f" d="M437 246h1v1h-1zm0 47.5h1v1h-1zm0-96h1v1h-1z"/>
    <path fill="#14171f" d="M437 246h1v1h-1zm48.5 0h1v1h-1zm-96 0h1v1h-1zm47.5 47.5h1v1h-1zm0-96h1v1h-1z"/>
    <path stroke="#14171f" stroke-opacity=".09" d="M486 198h96v96h-96z"/>
    <path stroke="#14171f" stroke-opacity=".15" d="M486 192v6m0 0h6m-6 0v6m0-6h-6m6 90v6m0 0h6m-6 0v6m0-6h-6m102-102v6m0 0h6m-6 0v6m0-6h-6m6 90v6m0 0h6m-6 0v6m0-6h-6"/>
    <path fill="#14171f" d="M533 246h1v1h-1zm0 47.5h1v1h-1zm0-96h1v1h-1z"/>
    <path fill="#14171f" d="M533 246h1v1h-1zm48.5 0h1v1h-1zm-96 0h1v1h-1zm47.5 47.5h1v1h-1zm0-96h1v1h-1z"/>
    <path stroke="#14171f" stroke-opacity=".09" d="M582 198h96v96h-96z"/>
    <path stroke="#14171f" stroke-opacity=".15" d="M582 192v6m0 0h6m-6 0v6m0-6h-6m6 90v6m0 0h6m-6 0v6m0-6h-6m102-102v6m0 0h6m-6 0v6m0-6h-6m6 90v6m0 0h6m-6 0v6m0-6h-6"/>
    <path fill="#14171f" d="M629 246h1v1h-1zm0 47.5h1v1h-1zm0-96h1v1h-1z"/>
    <path fill="#14171f" d="M629 246h1v1h-1zm48.5 0h1v1h-1zm-96 0h1v1h-1zm47.5 47.5h1v1h-1zm0-96h1v1h-1z"/>
    <path stroke="#14171f" stroke-opacity=".09" d="M678 198h96v96h-96z"/>
    <path stroke="#14171f" stroke-opacity=".15" d="M678 192v6m0 0h6m-6 0v6m0-6h-6m6 90v6m0 0h6m-6 0v6m0-6h-6m102-102v6m0 0h6m-6 0v6m0-6h-6m6 90v6m0 0h6m-6 0v6m0-6h-6"/>
    <path fill="#14171f" d="M725 246h1v1h-1zm0 47.5h1v1h-1zm0-96h1v1h-1z"/>
    <path fill="#14171f" d="M725 246h1v1h-1zm48.5 0h1v1h-1zm-96 0h1v1h-1zm47.5 47.5h1v1h-1zm0-96h1v1h-1z"/>
    <path stroke="#14171f" stroke-opacity=".09" d="M774 198h96v96h-96z"/>
    <path stroke="#14171f" stroke-opacity=".15" d="M774 192v6m0 0h6m-6 0v6m0-6h-6m6 90v6m0 0h6m-6 0v6m0-6h-6m102-102v6m0 0h6m-6 0v6m0-6h-6m6 90v6m0 0h6m-6 0v6m0-6h-6"/>
    <path fill="#14171f" d="M821 246h1v1h-1zm0 47.5h1v1h-1zm0-96h1v1h-1z"/>
    <path fill="#14171f" d="M821 246h1v1h-1zm48.5 0h1v1h-1zm-96 0h1v1h-1zm47.5 47.5h1v1h-1zm0-96h1v1h-1z"/>
    <path stroke="#14171f" stroke-opacity=".09" d="M870 198h96v96h-96z"/>
    <path stroke="#14171f" stroke-opacity=".15" d="M870 192v6m0 0h6m-6 0v6m0-6h-6m6 90v6m0 0h6m-6 0v6m0-6h-6m102-102v6m0 0h6m-6 0v6m0-6h-6m6 90v6m0 0h6m-6 0v6m0-6h-6"/>
    <path fill="#14171f" d="M917 246h1v1h-1zm0 47.5h1v1h-1zm0-96h1v1h-1z"/>
    <path fill="#14171f" d="M917 246h1v1h-1zm48.5 0h1v1h-1zm-96 0h1v1h-1zm47.5 47.5h1v1h-1zm0-96h1v1h-1z"/>
    <path stroke="#14171f" stroke-opacity=".09" d="M966 198h96v96h-96z"/>
    <path stroke="#14171f" stroke-opacity=".15" d="M966 192v6m0 0h6m-6 0v6m0-6h-6m6 90v6m0 0h6m-6 0v6m0-6h-6m102-102v6m0 0h6m-6 0v6m0-6h-6m6 90v6m0 0h6m-6 0v6m0-6h-6"/>
    <path fill="#14171f" d="M1013 246h1v1h-1zm0 47.5h1v1h-1zm0-96h1v1h-1z"/>
    <path fill="#14171f" d="M1013 246h1v1h-1zm48.5 0h1v1h-1zm-96 0h1v1h-1zm47.5 47.5h1v1h-1zm0-96h1v1h-1z"/>
    <path stroke="#14171f" stroke-opacity=".09" d="M1062 198h96v96h-96z"/>
    <path stroke="#14171f" stroke-opacity=".15" d="M1062 192v6m0 0h6m-6 0v6m0-6h-6m6 90v6m0 0h6m-6 0v6m0-6h-6m102-102v6m0 0h6m-6 0v6m0-6h-6m6 90v6m0 0h6m-6 0v6m0-6h-6"/>
    <path fill="#14171f" d="M1109 246h1v1h-1zm0 47.5h1v1h-1zm0-96h1v1h-1z"/>
    <path fill="#14171f" d="M1109 246h1v1h-1zm48.5 0h1v1h-1zm-96 0h1v1h-1zm47.5 47.5h1v1h-1zm0-96h1v1h-1z"/>
    <path stroke="#14171f" stroke-opacity=".09" d="M1158 198h96v96h-96z"/>
    <path stroke="#14171f" stroke-opacity=".15" d="M1158 192v6m0 0h6m-6 0v6m0-6h-6m6 90v6m0 0h6m-6 0v6m0-6h-6m102-102v6m0 0h6m-6 0v6m0-6h-6m6 90v6m0 0h6m-6 0v6m0-6h-6"/>
    <path fill="#14171f" d="M1205 246h1v1h-1zm0 47.5h1v1h-1zm0-96h1v1h-1z"/>
    <path fill="#14171f" d="M1205 246h1v1h-1zm48.5 0h1v1h-1zm-96 0h1v1h-1zm47.5 47.5h1v1h-1zm0-96h1v1h-1z"/>
    <path stroke="#14171f" stroke-opacity=".09" d="M1254 198h96v96h-96z"/>
    <path stroke="#14171f" stroke-opacity=".15" d="M1254 192v6m0 0h6m-6 0v6m0-6h-6m6 90v6m0 0h6m-6 0v6m0-6h-6m102-102v6m0 0h6m-6 0v6m0-6h-6m6 90v6m0 0h6m-6 0v6m0-6h-6"/>
    <path fill="#14171f" d="M1301 246h1v1h-1zm0 47.5h1v1h-1zm0-96h1v1h-1z"/>
    <path fill="#14171f" d="M1301 246h1v1h-1zm48.5 0h1v1h-1zm-96 0h1v1h-1zm47.5 47.5h1v1h-1zm0-96h1v1h-1z"/>
    <path stroke="#14171f" stroke-opacity=".09" d="M1350 198h96v96h-96z"/>
    <path stroke="#14171f" stroke-opacity=".15" d="M1350 192v6m0 0h6m-6 0v6m0-6h-6m6 90v6m0 0h6m-6 0v6m0-6h-6m102-102v6m0 0h6m-6 0v6m0-6h-6m6 90v6m0 0h6m-6 0v6m0-6h-6"/>
    <path fill="#14171f" d="M1397 246h1v1h-1zm0 47.5h1v1h-1zm0-96h1v1h-1z"/>
    <path fill="#14171f" d="M1397 246h1v1h-1zm48.5 0h1v1h-1zm-96 0h1v1h-1zm47.5 47.5h1v1h-1zm0-96h1v1h-1z"/>
    <path stroke="#14171f" stroke-opacity=".09" d="M6 294h96v96H6z"/>
    <path stroke="#14171f" stroke-opacity=".15" d="M6 288v6m0 0h6m-6 0v6m0-6H0m6 90v6m0 0h6m-6 0v6m0-6H0m102-102v6m0 0h6m-6 0v6m0-6h-6m6 90v6m0 0h6m-6 0v6m0-6h-6"/>
    <path fill="#14171f" d="M53 342h1v1h-1zm0 47.5h1v1h-1zm0-96h1v1h-1z"/>
    <path fill="#14171f" d="M53 342h1v1h-1zm48.5 0h1v1h-1zm-96 0h1v1h-1zM53 389.5h1v1h-1zm0-96h1v1h-1z"/>
    <path stroke="#14171f" stroke-opacity=".09" d="M102 294h96v96h-96z"/>
    <path stroke="#14171f" stroke-opacity=".15" d="M102 288v6m0 0h6m-6 0v6m0-6h-6m6 90v6m0 0h6m-6 0v6m0-6h-6m102-102v6m0 0h6m-6 0v6m0-6h-6m6 90v6m0 0h6m-6 0v6m0-6h-6"/>
    <path fill="#14171f" d="M149 342h1v1h-1zm0 47.5h1v1h-1zm0-96h1v1h-1z"/>
    <path fill="#14171f" d="M149 342h1v1h-1zm48.5 0h1v1h-1zm-96 0h1v1h-1zm47.5 47.5h1v1h-1zm0-96h1v1h-1z"/>
    <path stroke="#14171f" stroke-opacity=".09" d="M198 294h96v96h-96z"/>
    <path stroke="#14171f" stroke-opacity=".15" d="M198 288v6m0 0h6m-6 0v6m0-6h-6m6 90v6m0 0h6m-6 0v6m0-6h-6m102-102v6m0 0h6m-6 0v6m0-6h-6m6 90v6m0 0h6m-6 0v6m0-6h-6"/>
    <path fill="#14171f" d="M245 342h1v1h-1zm0 47.5h1v1h-1zm0-96h1v1h-1z"/>
    <path fill="#14171f" d="M245 342h1v1h-1zm48.5 0h1v1h-1zm-96 0h1v1h-1zm47.5 47.5h1v1h-1zm0-96h1v1h-1z"/>
    <path stroke="#14171f" stroke-opacity=".09" d="M294 294h96v96h-96z"/>
    <path stroke="#14171f" stroke-opacity=".15" d="M294 288v6m0 0h6m-6 0v6m0-6h-6m6 90v6m0 0h6m-6 0v6m0-6h-6m102-102v6m0 0h6m-6 0v6m0-6h-6m6 90v6m0 0h6m-6 0v6m0-6h-6"/>
    <path fill="#14171f" d="M341 342h1v1h-1zm0 47.5h1v1h-1zm0-96h1v1h-1z"/>
    <path fill="#14171f" d="M341 342h1v1h-1zm48.5 0h1v1h-1zm-96 0h1v1h-1zm47.5 47.5h1v1h-1zm0-96h1v1h-1z"/>
    <path stroke="#14171f" stroke-opacity=".09" d="M390 294h96v96h-96z"/>
    <path stroke="#14171f" stroke-opacity=".15" d="M390 288v6m0 0h6m-6 0v6m0-6h-6m6 90v6m0 0h6m-6 0v6m0-6h-6m102-102v6m0 0h6m-6 0v6m0-6h-6m6 90v6m0 0h6m-6 0v6m0-6h-6"/>
    <path fill="#14171f" d="M437 342h1v1h-1zm0 47.5h1v1h-1zm0-96h1v1h-1z"/>
    <path fill="#14171f" d="M437 342h1v1h-1zm48.5 0h1v1h-1zm-96 0h1v1h-1zm47.5 47.5h1v1h-1zm0-96h1v1h-1z"/>
    <path stroke="#14171f" stroke-opacity=".09" d="M486 294h96v96h-96z"/>
    <path stroke="#14171f" stroke-opacity=".15" d="M486 288v6m0 0h6m-6 0v6m0-6h-6m6 90v6m0 0h6m-6 0v6m0-6h-6m102-102v6m0 0h6m-6 0v6m0-6h-6m6 90v6m0 0h6m-6 0v6m0-6h-6"/>
    <path fill="#14171f" d="M533 342h1v1h-1zm0 47.5h1v1h-1zm0-96h1v1h-1z"/>
    <path fill="#14171f" d="M533 342h1v1h-1zm48.5 0h1v1h-1zm-96 0h1v1h-1zm47.5 47.5h1v1h-1zm0-96h1v1h-1z"/>
    <path stroke="#14171f" stroke-opacity=".09" d="M582 294h96v96h-96z"/>
    <path stroke="#14171f" stroke-opacity=".15" d="M582 288v6m0 0h6m-6 0v6m0-6h-6m6 90v6m0 0h6m-6 0v6m0-6h-6m102-102v6m0 0h6m-6 0v6m0-6h-6m6 90v6m0 0h6m-6 0v6m0-6h-6"/>
    <path fill="#14171f" d="M629 342h1v1h-1zm0 47.5h1v1h-1zm0-96h1v1h-1z"/>
    <path fill="#14171f" d="M629 342h1v1h-1zm48.5 0h1v1h-1zm-96 0h1v1h-1zm47.5 47.5h1v1h-1zm0-96h1v1h-1z"/>
    <path stroke="#14171f" stroke-opacity=".09" d="M678 294h96v96h-96z"/>
    <path stroke="#14171f" stroke-opacity=".15" d="M678 288v6m0 0h6m-6 0v6m0-6h-6m6 90v6m0 0h6m-6 0v6m0-6h-6m102-102v6m0 0h6m-6 0v6m0-6h-6m6 90v6m0 0h6m-6 0v6m0-6h-6"/>
    <path fill="#14171f" d="M725 342h1v1h-1zm0 47.5h1v1h-1zm0-96h1v1h-1z"/>
    <path fill="#14171f" d="M725 342h1v1h-1zm48.5 0h1v1h-1zm-96 0h1v1h-1zm47.5 47.5h1v1h-1zm0-96h1v1h-1z"/>
    <path stroke="#14171f" stroke-opacity=".09" d="M774 294h96v96h-96z"/>
    <path stroke="#14171f" stroke-opacity=".15" d="M774 288v6m0 0h6m-6 0v6m0-6h-6m6 90v6m0 0h6m-6 0v6m0-6h-6m102-102v6m0 0h6m-6 0v6m0-6h-6m6 90v6m0 0h6m-6 0v6m0-6h-6"/>
    <path fill="#14171f" d="M821 342h1v1h-1zm0 47.5h1v1h-1zm0-96h1v1h-1z"/>
    <path fill="#14171f" d="M821 342h1v1h-1zm48.5 0h1v1h-1zm-96 0h1v1h-1zm47.5 47.5h1v1h-1zm0-96h1v1h-1z"/>
    <path stroke="#14171f" stroke-opacity=".09" d="M870 294h96v96h-96z"/>
    <path stroke="#14171f" stroke-opacity=".15" d="M870 288v6m0 0h6m-6 0v6m0-6h-6m6 90v6m0 0h6m-6 0v6m0-6h-6m102-102v6m0 0h6m-6 0v6m0-6h-6m6 90v6m0 0h6m-6 0v6m0-6h-6"/>
    <path fill="#14171f" d="M917 342h1v1h-1zm0 47.5h1v1h-1zm0-96h1v1h-1z"/>
    <path fill="#14171f" d="M917 342h1v1h-1zm48.5 0h1v1h-1zm-96 0h1v1h-1zm47.5 47.5h1v1h-1zm0-96h1v1h-1z"/>
    <path stroke="#14171f" stroke-opacity=".09" d="M966 294h96v96h-96z"/>
    <path stroke="#14171f" stroke-opacity=".15" d="M966 288v6m0 0h6m-6 0v6m0-6h-6m6 90v6m0 0h6m-6 0v6m0-6h-6m102-102v6m0 0h6m-6 0v6m0-6h-6m6 90v6m0 0h6m-6 0v6m0-6h-6"/>
    <path fill="#14171f" d="M1013 342h1v1h-1zm0 47.5h1v1h-1zm0-96h1v1h-1z"/>
    <path fill="#14171f" d="M1013 342h1v1h-1zm48.5 0h1v1h-1zm-96 0h1v1h-1zm47.5 47.5h1v1h-1zm0-96h1v1h-1z"/>
    <path stroke="#14171f" stroke-opacity=".09" d="M1062 294h96v96h-96z"/>
    <path stroke="#14171f" stroke-opacity=".15" d="M1062 288v6m0 0h6m-6 0v6m0-6h-6m6 90v6m0 0h6m-6 0v6m0-6h-6m102-102v6m0 0h6m-6 0v6m0-6h-6m6 90v6m0 0h6m-6 0v6m0-6h-6"/>
    <path fill="#14171f" d="M1109 342h1v1h-1zm0 47.5h1v1h-1zm0-96h1v1h-1z"/>
    <path fill="#14171f" d="M1109 342h1v1h-1zm48.5 0h1v1h-1zm-96 0h1v1h-1zm47.5 47.5h1v1h-1zm0-96h1v1h-1z"/>
    <path stroke="#14171f" stroke-opacity=".09" d="M1158 294h96v96h-96z"/>
    <path stroke="#14171f" stroke-opacity=".15" d="M1158 288v6m0 0h6m-6 0v6m0-6h-6m6 90v6m0 0h6m-6 0v6m0-6h-6m102-102v6m0 0h6m-6 0v6m0-6h-6m6 90v6m0 0h6m-6 0v6m0-6h-6"/>
    <path fill="#14171f" d="M1205 342h1v1h-1zm0 47.5h1v1h-1zm0-96h1v1h-1z"/>
    <path fill="#14171f" d="M1205 342h1v1h-1zm48.5 0h1v1h-1zm-96 0h1v1h-1zm47.5 47.5h1v1h-1zm0-96h1v1h-1z"/>
    <path stroke="#14171f" stroke-opacity=".09" d="M1254 294h96v96h-96z"/>
    <path stroke="#14171f" stroke-opacity=".15" d="M1254 288v6m0 0h6m-6 0v6m0-6h-6m6 90v6m0 0h6m-6 0v6m0-6h-6m102-102v6m0 0h6m-6 0v6m0-6h-6m6 90v6m0 0h6m-6 0v6m0-6h-6"/>
    <path fill="#14171f" d="M1301 342h1v1h-1zm0 47.5h1v1h-1zm0-96h1v1h-1z"/>
    <path fill="#14171f" d="M1301 342h1v1h-1zm48.5 0h1v1h-1zm-96 0h1v1h-1zm47.5 47.5h1v1h-1zm0-96h1v1h-1z"/>
    <path stroke="#14171f" stroke-opacity=".09" d="M1350 294h96v96h-96z"/>
    <path stroke="#14171f" stroke-opacity=".15" d="M1350 288v6m0 0h6m-6 0v6m0-6h-6m6 90v6m0 0h6m-6 0v6m0-6h-6m102-102v6m0 0h6m-6 0v6m0-6h-6m6 90v6m0 0h6m-6 0v6m0-6h-6"/>
    <path fill="#14171f" d="M1397 342h1v1h-1zm0 47.5h1v1h-1zm0-96h1v1h-1z"/>
    <path fill="#14171f" d="M1397 342h1v1h-1zm48.5 0h1v1h-1zm-96 0h1v1h-1zm47.5 47.5h1v1h-1zm0-96h1v1h-1z"/>
    <path stroke="#14171f" stroke-opacity=".09" d="M6 390h96v96H6z"/>
    <path stroke="#14171f" stroke-opacity=".15" d="M6 384v6m0 0h6m-6 0v6m0-6H0m6 90v6m0 0h6m-6 0v6m0-6H0m102-102v6m0 0h6m-6 0v6m0-6h-6m6 90v6m0 0h6m-6 0v6m0-6h-6"/>
    <path fill="#14171f" d="M53 438h1v1h-1zm0 47.5h1v1h-1zm0-96h1v1h-1z"/>
    <path fill="#14171f" d="M53 438h1v1h-1zm48.5 0h1v1h-1zm-96 0h1v1h-1zM53 485.5h1v1h-1zm0-96h1v1h-1z"/>
    <path stroke="#14171f" stroke-opacity=".09" d="M102 390h96v96h-96z"/>
    <path stroke="#14171f" stroke-opacity=".15" d="M102 384v6m0 0h6m-6 0v6m0-6h-6m6 90v6m0 0h6m-6 0v6m0-6h-6m102-102v6m0 0h6m-6 0v6m0-6h-6m6 90v6m0 0h6m-6 0v6m0-6h-6"/>
    <path fill="#14171f" d="M149 438h1v1h-1zm0 47.5h1v1h-1zm0-96h1v1h-1z"/>
    <path fill="#14171f" d="M149 438h1v1h-1zm48.5 0h1v1h-1zm-96 0h1v1h-1zm47.5 47.5h1v1h-1zm0-96h1v1h-1z"/>
    <path stroke="#14171f" stroke-opacity=".09" d="M198 390h96v96h-96z"/>
    <path stroke="#14171f" stroke-opacity=".15" d="M198 384v6m0 0h6m-6 0v6m0-6h-6m6 90v6m0 0h6m-6 0v6m0-6h-6m102-102v6m0 0h6m-6 0v6m0-6h-6m6 90v6m0 0h6m-6 0v6m0-6h-6"/>
    <path fill="#14171f" d="M245 438h1v1h-1zm0 47.5h1v1h-1zm0-96h1v1h-1z"/>
    <path fill="#14171f" d="M245 438h1v1h-1zm48.5 0h1v1h-1zm-96 0h1v1h-1zm47.5 47.5h1v1h-1zm0-96h1v1h-1z"/>
    <path stroke="#14171f" stroke-opacity=".09" d="M294 390h96v96h-96z"/>
    <path stroke="#14171f" stroke-opacity=".15" d="M294 384v6m0 0h6m-6 0v6m0-6h-6m6 90v6m0 0h6m-6 0v6m0-6h-6m102-102v6m0 0h6m-6 0v6m0-6h-6m6 90v6m0 0h6m-6 0v6m0-6h-6"/>
    <path fill="#14171f" d="M341 438h1v1h-1zm0 47.5h1v1h-1zm0-96h1v1h-1z"/>
    <path fill="#14171f" d="M341 438h1v1h-1zm48.5 0h1v1h-1zm-96 0h1v1h-1zm47.5 47.5h1v1h-1zm0-96h1v1h-1z"/>
    <path stroke="#14171f" stroke-opacity=".09" d="M390 390h96v96h-96z"/>
    <path stroke="#14171f" stroke-opacity=".15" d="M390 384v6m0 0h6m-6 0v6m0-6h-6m6 90v6m0 0h6m-6 0v6m0-6h-6m102-102v6m0 0h6m-6 0v6m0-6h-6m6 90v6m0 0h6m-6 0v6m0-6h-6"/>
    <path fill="#14171f" d="M437 438h1v1h-1zm0 47.5h1v1h-1zm0-96h1v1h-1z"/>
    <path fill="#14171f" d="M437 438h1v1h-1zm48.5 0h1v1h-1zm-96 0h1v1h-1zm47.5 47.5h1v1h-1zm0-96h1v1h-1z"/>
    <path stroke="#14171f" stroke-opacity=".09" d="M486 390h96v96h-96z"/>
    <path stroke="#14171f" stroke-opacity=".15" d="M486 384v6m0 0h6m-6 0v6m0-6h-6m6 90v6m0 0h6m-6 0v6m0-6h-6m102-102v6m0 0h6m-6 0v6m0-6h-6m6 90v6m0 0h6m-6 0v6m0-6h-6"/>
    <path fill="#14171f" d="M533 438h1v1h-1zm0 47.5h1v1h-1zm0-96h1v1h-1z"/>
    <path fill="#14171f" d="M533 438h1v1h-1zm48.5 0h1v1h-1zm-96 0h1v1h-1zm47.5 47.5h1v1h-1zm0-96h1v1h-1z"/>
    <path stroke="#14171f" stroke-opacity=".09" d="M582 390h96v96h-96z"/>
    <path stroke="#14171f" stroke-opacity=".15" d="M582 384v6m0 0h6m-6 0v6m0-6h-6m6 90v6m0 0h6m-6 0v6m0-6h-6m102-102v6m0 0h6m-6 0v6m0-6h-6m6 90v6m0 0h6m-6 0v6m0-6h-6"/>
    <path fill="#14171f" d="M629 438h1v1h-1zm0 47.5h1v1h-1zm0-96h1v1h-1z"/>
    <path fill="#14171f" d="M629 438h1v1h-1zm48.5 0h1v1h-1zm-96 0h1v1h-1zm47.5 47.5h1v1h-1zm0-96h1v1h-1z"/>
    <path stroke="#14171f" stroke-opacity=".09" d="M678 390h96v96h-96z"/>
    <path stroke="#14171f" stroke-opacity=".15" d="M678 384v6m0 0h6m-6 0v6m0-6h-6m6 90v6m0 0h6m-6 0v6m0-6h-6m102-102v6m0 0h6m-6 0v6m0-6h-6m6 90v6m0 0h6m-6 0v6m0-6h-6"/>
    <path fill="#14171f" d="M725 438h1v1h-1zm0 47.5h1v1h-1zm0-96h1v1h-1z"/>
    <path fill="#14171f" d="M725 438h1v1h-1zm48.5 0h1v1h-1zm-96 0h1v1h-1zm47.5 47.5h1v1h-1zm0-96h1v1h-1z"/>
    <path stroke="#14171f" stroke-opacity=".09" d="M774 390h96v96h-96z"/>
    <path stroke="#14171f" stroke-opacity=".15" d="M774 384v6m0 0h6m-6 0v6m0-6h-6m6 90v6m0 0h6m-6 0v6m0-6h-6m102-102v6m0 0h6m-6 0v6m0-6h-6m6 90v6m0 0h6m-6 0v6m0-6h-6"/>
    <path fill="#14171f" d="M821 438h1v1h-1zm0 47.5h1v1h-1zm0-96h1v1h-1z"/>
    <path fill="#14171f" d="M821 438h1v1h-1zm48.5 0h1v1h-1zm-96 0h1v1h-1zm47.5 47.5h1v1h-1zm0-96h1v1h-1z"/>
    <path stroke="#14171f" stroke-opacity=".09" d="M870 390h96v96h-96z"/>
    <path stroke="#14171f" stroke-opacity=".15" d="M870 384v6m0 0h6m-6 0v6m0-6h-6m6 90v6m0 0h6m-6 0v6m0-6h-6m102-102v6m0 0h6m-6 0v6m0-6h-6m6 90v6m0 0h6m-6 0v6m0-6h-6"/>
    <path fill="#14171f" d="M917 438h1v1h-1zm0 47.5h1v1h-1zm0-96h1v1h-1z"/>
    <path fill="#14171f" d="M917 438h1v1h-1zm48.5 0h1v1h-1zm-96 0h1v1h-1zm47.5 47.5h1v1h-1zm0-96h1v1h-1z"/>
    <path stroke="#14171f" stroke-opacity=".09" d="M966 390h96v96h-96z"/>
    <path stroke="#14171f" stroke-opacity=".15" d="M966 384v6m0 0h6m-6 0v6m0-6h-6m6 90v6m0 0h6m-6 0v6m0-6h-6m102-102v6m0 0h6m-6 0v6m0-6h-6m6 90v6m0 0h6m-6 0v6m0-6h-6"/>
    <path fill="#14171f" d="M1013 438h1v1h-1zm0 47.5h1v1h-1zm0-96h1v1h-1z"/>
    <path fill="#14171f" d="M1013 438h1v1h-1zm48.5 0h1v1h-1zm-96 0h1v1h-1zm47.5 47.5h1v1h-1zm0-96h1v1h-1z"/>
    <path stroke="#14171f" stroke-opacity=".09" d="M1062 390h96v96h-96z"/>
    <path stroke="#14171f" stroke-opacity=".15" d="M1062 384v6m0 0h6m-6 0v6m0-6h-6m6 90v6m0 0h6m-6 0v6m0-6h-6m102-102v6m0 0h6m-6 0v6m0-6h-6m6 90v6m0 0h6m-6 0v6m0-6h-6"/>
    <path fill="#14171f" d="M1109 438h1v1h-1zm0 47.5h1v1h-1zm0-96h1v1h-1z"/>
    <path fill="#14171f" d="M1109 438h1v1h-1zm48.5 0h1v1h-1zm-96 0h1v1h-1zm47.5 47.5h1v1h-1zm0-96h1v1h-1z"/>
    <path stroke="#14171f" stroke-opacity=".09" d="M1158 390h96v96h-96z"/>
    <path stroke="#14171f" stroke-opacity=".15" d="M1158 384v6m0 0h6m-6 0v6m0-6h-6m6 90v6m0 0h6m-6 0v6m0-6h-6m102-102v6m0 0h6m-6 0v6m0-6h-6m6 90v6m0 0h6m-6 0v6m0-6h-6"/>
    <path fill="#14171f" d="M1205 438h1v1h-1zm0 47.5h1v1h-1zm0-96h1v1h-1z"/>
    <path fill="#14171f" d="M1205 438h1v1h-1zm48.5 0h1v1h-1zm-96 0h1v1h-1zm47.5 47.5h1v1h-1zm0-96h1v1h-1z"/>
    <path stroke="#14171f" stroke-opacity=".09" d="M1254 390h96v96h-96z"/>
    <path stroke="#14171f" stroke-opacity=".15" d="M1254 384v6m0 0h6m-6 0v6m0-6h-6m6 90v6m0 0h6m-6 0v6m0-6h-6m102-102v6m0 0h6m-6 0v6m0-6h-6m6 90v6m0 0h6m-6 0v6m0-6h-6"/>
    <path fill="#14171f" d="M1301 438h1v1h-1zm0 47.5h1v1h-1zm0-96h1v1h-1z"/>
    <path fill="#14171f" d="M1301 438h1v1h-1zm48.5 0h1v1h-1zm-96 0h1v1h-1zm47.5 47.5h1v1h-1zm0-96h1v1h-1z"/>
    <path stroke="#14171f" stroke-opacity=".09" d="M1350 390h96v96h-96z"/>
    <path stroke="#14171f" stroke-opacity=".15" d="M1350 384v6m0 0h6m-6 0v6m0-6h-6m6 90v6m0 0h6m-6 0v6m0-6h-6m102-102v6m0 0h6m-6 0v6m0-6h-6m6 90v6m0 0h6m-6 0v6m0-6h-6"/>
    <path fill="#14171f" d="M1397 438h1v1h-1zm0 47.5h1v1h-1zm0-96h1v1h-1z"/>
    <path fill="#14171f" d="M1397 438h1v1h-1zm48.5 0h1v1h-1zm-96 0h1v1h-1zm47.5 47.5h1v1h-1zm0-96h1v1h-1z"/>
    <path stroke="#14171f" stroke-opacity=".09" d="M6 486h96v96H6z"/>
    <path stroke="#14171f" stroke-opacity=".15" d="M6 480v6m0 0h6m-6 0v6m0-6H0m6 90v6m0 0h6m-6 0v6m0-6H0m102-102v6m0 0h6m-6 0v6m0-6h-6m6 90v6m0 0h6m-6 0v6m0-6h-6"/>
    <path fill="#14171f" d="M53 534h1v1h-1zm0 47.5h1v1h-1zm0-96h1v1h-1z"/>
    <path fill="#14171f" d="M53 534h1v1h-1zm48.5 0h1v1h-1zm-96 0h1v1h-1zM53 581.5h1v1h-1zm0-96h1v1h-1z"/>
    <path stroke="#14171f" stroke-opacity=".09" d="M102 486h96v96h-96z"/>
    <path stroke="#14171f" stroke-opacity=".15" d="M102 480v6m0 0h6m-6 0v6m0-6h-6m6 90v6m0 0h6m-6 0v6m0-6h-6m102-102v6m0 0h6m-6 0v6m0-6h-6m6 90v6m0 0h6m-6 0v6m0-6h-6"/>
    <path fill="#14171f" d="M149 534h1v1h-1zm0 47.5h1v1h-1zm0-96h1v1h-1z"/>
    <path fill="#14171f" d="M149 534h1v1h-1zm48.5 0h1v1h-1zm-96 0h1v1h-1zm47.5 47.5h1v1h-1zm0-96h1v1h-1z"/>
    <path stroke="#14171f" stroke-opacity=".09" d="M198 486h96v96h-96z"/>
    <path stroke="#14171f" stroke-opacity=".15" d="M198 480v6m0 0h6m-6 0v6m0-6h-6m6 90v6m0 0h6m-6 0v6m0-6h-6m102-102v6m0 0h6m-6 0v6m0-6h-6m6 90v6m0 0h6m-6 0v6m0-6h-6"/>
    <path fill="#14171f" d="M245 534h1v1h-1zm0 47.5h1v1h-1zm0-96h1v1h-1z"/>
    <path fill="#14171f" d="M245 534h1v1h-1zm48.5 0h1v1h-1zm-96 0h1v1h-1zm47.5 47.5h1v1h-1zm0-96h1v1h-1z"/>
    <path stroke="#14171f" stroke-opacity=".09" d="M294 486h96v96h-96z"/>
    <path stroke="#14171f" stroke-opacity=".15" d="M294 480v6m0 0h6m-6 0v6m0-6h-6m6 90v6m0 0h6m-6 0v6m0-6h-6m102-102v6m0 0h6m-6 0v6m0-6h-6m6 90v6m0 0h6m-6 0v6m0-6h-6"/>
    <path fill="#14171f" d="M341 534h1v1h-1zm0 47.5h1v1h-1zm0-96h1v1h-1z"/>
    <path fill="#14171f" d="M341 534h1v1h-1zm48.5 0h1v1h-1zm-96 0h1v1h-1zm47.5 47.5h1v1h-1zm0-96h1v1h-1z"/>
    <path stroke="#14171f" stroke-opacity=".09" d="M390 486h96v96h-96z"/>
    <path stroke="#14171f" stroke-opacity=".15" d="M390 480v6m0 0h6m-6 0v6m0-6h-6m6 90v6m0 0h6m-6 0v6m0-6h-6m102-102v6m0 0h6m-6 0v6m0-6h-6m6 90v6m0 0h6m-6 0v6m0-6h-6"/>
    <path fill="#14171f" d="M437 534h1v1h-1zm0 47.5h1v1h-1zm0-96h1v1h-1z"/>
    <path fill="#14171f" d="M437 534h1v1h-1zm48.5 0h1v1h-1zm-96 0h1v1h-1zm47.5 47.5h1v1h-1zm0-96h1v1h-1z"/>
    <path stroke="#14171f" stroke-opacity=".09" d="M486 486h96v96h-96z"/>
    <path stroke="#14171f" stroke-opacity=".15" d="M486 480v6m0 0h6m-6 0v6m0-6h-6m6 90v6m0 0h6m-6 0v6m0-6h-6m102-102v6m0 0h6m-6 0v6m0-6h-6m6 90v6m0 0h6m-6 0v6m0-6h-6"/>
    <path fill="#14171f" d="M533 534h1v1h-1zm0 47.5h1v1h-1zm0-96h1v1h-1z"/>
    <path fill="#14171f" d="M533 534h1v1h-1zm48.5 0h1v1h-1zm-96 0h1v1h-1zm47.5 47.5h1v1h-1zm0-96h1v1h-1z"/>
    <path stroke="#14171f" stroke-opacity=".09" d="M582 486h96v96h-96z"/>
    <path stroke="#14171f" stroke-opacity=".15" d="M582 480v6m0 0h6m-6 0v6m0-6h-6m6 90v6m0 0h6m-6 0v6m0-6h-6m102-102v6m0 0h6m-6 0v6m0-6h-6m6 90v6m0 0h6m-6 0v6m0-6h-6"/>
    <path fill="#14171f" d="M629 534h1v1h-1zm0 47.5h1v1h-1zm0-96h1v1h-1z"/>
    <path fill="#14171f" d="M629 534h1v1h-1zm48.5 0h1v1h-1zm-96 0h1v1h-1zm47.5 47.5h1v1h-1zm0-96h1v1h-1z"/>
    <path stroke="#14171f" stroke-opacity=".09" d="M678 486h96v96h-96z"/>
    <path stroke="#14171f" stroke-opacity=".15" d="M678 480v6m0 0h6m-6 0v6m0-6h-6m6 90v6m0 0h6m-6 0v6m0-6h-6m102-102v6m0 0h6m-6 0v6m0-6h-6m6 90v6m0 0h6m-6 0v6m0-6h-6"/>
    <path fill="#14171f" d="M725 534h1v1h-1zm0 47.5h1v1h-1zm0-96h1v1h-1z"/>
    <path fill="#14171f" d="M725 534h1v1h-1zm48.5 0h1v1h-1zm-96 0h1v1h-1zm47.5 47.5h1v1h-1zm0-96h1v1h-1z"/>
    <path stroke="#14171f" stroke-opacity=".09" d="M774 486h96v96h-96z"/>
    <path stroke="#14171f" stroke-opacity=".15" d="M774 480v6m0 0h6m-6 0v6m0-6h-6m6 90v6m0 0h6m-6 0v6m0-6h-6m102-102v6m0 0h6m-6 0v6m0-6h-6m6 90v6m0 0h6m-6 0v6m0-6h-6"/>
    <path fill="#14171f" d="M821 534h1v1h-1zm0 47.5h1v1h-1zm0-96h1v1h-1z"/>
    <path fill="#14171f" d="M821 534h1v1h-1zm48.5 0h1v1h-1zm-96 0h1v1h-1zm47.5 47.5h1v1h-1zm0-96h1v1h-1z"/>
    <path stroke="#14171f" stroke-opacity=".09" d="M870 486h96v96h-96z"/>
    <path stroke="#14171f" stroke-opacity=".15" d="M870 480v6m0 0h6m-6 0v6m0-6h-6m6 90v6m0 0h6m-6 0v6m0-6h-6m102-102v6m0 0h6m-6 0v6m0-6h-6m6 90v6m0 0h6m-6 0v6m0-6h-6"/>
    <path fill="#14171f" d="M917 534h1v1h-1zm0 47.5h1v1h-1zm0-96h1v1h-1z"/>
    <path fill="#14171f" d="M917 534h1v1h-1zm48.5 0h1v1h-1zm-96 0h1v1h-1zm47.5 47.5h1v1h-1zm0-96h1v1h-1z"/>
    <path stroke="#14171f" stroke-opacity=".09" d="M966 486h96v96h-96z"/>
    <path stroke="#14171f" stroke-opacity=".15" d="M966 480v6m0 0h6m-6 0v6m0-6h-6m6 90v6m0 0h6m-6 0v6m0-6h-6m102-102v6m0 0h6m-6 0v6m0-6h-6m6 90v6m0 0h6m-6 0v6m0-6h-6"/>
    <path fill="#14171f" d="M1013 534h1v1h-1zm0 47.5h1v1h-1zm0-96h1v1h-1z"/>
    <path fill="#14171f" d="M1013 534h1v1h-1zm48.5 0h1v1h-1zm-96 0h1v1h-1zm47.5 47.5h1v1h-1zm0-96h1v1h-1z"/>
    <path stroke="#14171f" stroke-opacity=".09" d="M1062 486h96v96h-96z"/>
    <path stroke="#14171f" stroke-opacity=".15" d="M1062 480v6m0 0h6m-6 0v6m0-6h-6m6 90v6m0 0h6m-6 0v6m0-6h-6m102-102v6m0 0h6m-6 0v6m0-6h-6m6 90v6m0 0h6m-6 0v6m0-6h-6"/>
    <path fill="#14171f" d="M1109 534h1v1h-1zm0 47.5h1v1h-1zm0-96h1v1h-1z"/>
    <path fill="#14171f" d="M1109 534h1v1h-1zm48.5 0h1v1h-1zm-96 0h1v1h-1zm47.5 47.5h1v1h-1zm0-96h1v1h-1z"/>
    <path stroke="#14171f" stroke-opacity=".09" d="M1158 486h96v96h-96z"/>
    <path stroke="#14171f" stroke-opacity=".15" d="M1158 480v6m0 0h6m-6 0v6m0-6h-6m6 90v6m0 0h6m-6 0v6m0-6h-6m102-102v6m0 0h6m-6 0v6m0-6h-6m6 90v6m0 0h6m-6 0v6m0-6h-6"/>
    <path fill="#14171f" d="M1205 534h1v1h-1zm0 47.5h1v1h-1zm0-96h1v1h-1z"/>
    <path fill="#14171f" d="M1205 534h1v1h-1zm48.5 0h1v1h-1zm-96 0h1v1h-1zm47.5 47.5h1v1h-1zm0-96h1v1h-1z"/>
    <path stroke="#14171f" stroke-opacity=".09" d="M1254 486h96v96h-96z"/>
    <path stroke="#14171f" stroke-opacity=".15" d="M1254 480v6m0 0h6m-6 0v6m0-6h-6m6 90v6m0 0h6m-6 0v6m0-6h-6m102-102v6m0 0h6m-6 0v6m0-6h-6m6 90v6m0 0h6m-6 0v6m0-6h-6"/>
    <path fill="#14171f" d="M1301 534h1v1h-1zm0 47.5h1v1h-1zm0-96h1v1h-1z"/>
    <path fill="#14171f" d="M1301 534h1v1h-1zm48.5 0h1v1h-1zm-96 0h1v1h-1zm47.5 47.5h1v1h-1zm0-96h1v1h-1z"/>
    <path stroke="#14171f" stroke-opacity=".09" d="M1350 486h96v96h-96z"/>
    <path stroke="#14171f" stroke-opacity=".15" d="M1350 480v6m0 0h6m-6 0v6m0-6h-6m6 90v6m0 0h6m-6 0v6m0-6h-6m102-102v6m0 0h6m-6 0v6m0-6h-6m6 90v6m0 0h6m-6 0v6m0-6h-6"/>
    <path fill="#14171f" d="M1397 534h1v1h-1zm0 47.5h1v1h-1zm0-96h1v1h-1z"/>
    <path fill="#14171f" d="M1397 534h1v1h-1zm48.5 0h1v1h-1zm-96 0h1v1h-1zm47.5 47.5h1v1h-1zm0-96h1v1h-1z"/>
    <path stroke="#14171f" stroke-opacity=".09" d="M6 582h96v96H6z"/>
    <path stroke="#14171f" stroke-opacity=".15" d="M6 576v6m0 0h6m-6 0v6m0-6H0m6 90v6m0 0h6m-6 0v6m0-6H0m102-102v6m0 0h6m-6 0v6m0-6h-6m6 90v6m0 0h6m-6 0v6m0-6h-6"/>
    <path fill="#14171f" d="M53 630h1v1h-1zm0 47.5h1v1h-1zm0-96h1v1h-1z"/>
    <path fill="#14171f" d="M53 630h1v1h-1zm48.5 0h1v1h-1zm-96 0h1v1h-1zM53 677.5h1v1h-1zm0-96h1v1h-1z"/>
    <path stroke="#14171f" stroke-opacity=".09" d="M102 582h96v96h-96z"/>
    <path stroke="#14171f" stroke-opacity=".15" d="M102 576v6m0 0h6m-6 0v6m0-6h-6m6 90v6m0 0h6m-6 0v6m0-6h-6m102-102v6m0 0h6m-6 0v6m0-6h-6m6 90v6m0 0h6m-6 0v6m0-6h-6"/>
    <path fill="#14171f" d="M149 630h1v1h-1zm0 47.5h1v1h-1zm0-96h1v1h-1z"/>
    <path fill="#14171f" d="M149 630h1v1h-1zm48.5 0h1v1h-1zm-96 0h1v1h-1zm47.5 47.5h1v1h-1zm0-96h1v1h-1z"/>
    <path stroke="#14171f" stroke-opacity=".09" d="M198 582h96v96h-96z"/>
    <path stroke="#14171f" stroke-opacity=".15" d="M198 576v6m0 0h6m-6 0v6m0-6h-6m6 90v6m0 0h6m-6 0v6m0-6h-6m102-102v6m0 0h6m-6 0v6m0-6h-6m6 90v6m0 0h6m-6 0v6m0-6h-6"/>
    <path fill="#14171f" d="M245 630h1v1h-1zm0 47.5h1v1h-1zm0-96h1v1h-1z"/>
    <path fill="#14171f" d="M245 630h1v1h-1zm48.5 0h1v1h-1zm-96 0h1v1h-1zm47.5 47.5h1v1h-1zm0-96h1v1h-1z"/>
    <path stroke="#14171f" stroke-opacity=".09" d="M294 582h96v96h-96z"/>
    <path stroke="#14171f" stroke-opacity=".15" d="M294 576v6m0 0h6m-6 0v6m0-6h-6m6 90v6m0 0h6m-6 0v6m0-6h-6m102-102v6m0 0h6m-6 0v6m0-6h-6m6 90v6m0 0h6m-6 0v6m0-6h-6"/>
    <path fill="#14171f" d="M341 630h1v1h-1zm0 47.5h1v1h-1zm0-96h1v1h-1z"/>
    <path fill="#14171f" d="M341 630h1v1h-1zm48.5 0h1v1h-1zm-96 0h1v1h-1zm47.5 47.5h1v1h-1zm0-96h1v1h-1z"/>
    <path stroke="#14171f" stroke-opacity=".09" d="M390 582h96v96h-96z"/>
    <path stroke="#14171f" stroke-opacity=".15" d="M390 576v6m0 0h6m-6 0v6m0-6h-6m6 90v6m0 0h6m-6 0v6m0-6h-6m102-102v6m0 0h6m-6 0v6m0-6h-6m6 90v6m0 0h6m-6 0v6m0-6h-6"/>
    <path fill="#14171f" d="M437 630h1v1h-1zm0 47.5h1v1h-1zm0-96h1v1h-1z"/>
    <path fill="#14171f" d="M437 630h1v1h-1zm48.5 0h1v1h-1zm-96 0h1v1h-1zm47.5 47.5h1v1h-1zm0-96h1v1h-1z"/>
    <path stroke="#14171f" stroke-opacity=".09" d="M486 582h96v96h-96z"/>
    <path stroke="#14171f" stroke-opacity=".15" d="M486 576v6m0 0h6m-6 0v6m0-6h-6m6 90v6m0 0h6m-6 0v6m0-6h-6m102-102v6m0 0h6m-6 0v6m0-6h-6m6 90v6m0 0h6m-6 0v6m0-6h-6"/>
    <path fill="#14171f" d="M533 630h1v1h-1zm0 47.5h1v1h-1zm0-96h1v1h-1z"/>
    <path fill="#14171f" d="M533 630h1v1h-1zm48.5 0h1v1h-1zm-96 0h1v1h-1zm47.5 47.5h1v1h-1zm0-96h1v1h-1z"/>
    <path stroke="#14171f" stroke-opacity=".09" d="M582 582h96v96h-96z"/>
    <path stroke="#14171f" stroke-opacity=".15" d="M582 576v6m0 0h6m-6 0v6m0-6h-6m6 90v6m0 0h6m-6 0v6m0-6h-6m102-102v6m0 0h6m-6 0v6m0-6h-6m6 90v6m0 0h6m-6 0v6m0-6h-6"/>
    <path fill="#14171f" d="M629 630h1v1h-1zm0 47.5h1v1h-1zm0-96h1v1h-1z"/>
    <path fill="#14171f" d="M629 630h1v1h-1zm48.5 0h1v1h-1zm-96 0h1v1h-1zm47.5 47.5h1v1h-1zm0-96h1v1h-1z"/>
    <path stroke="#14171f" stroke-opacity=".09" d="M678 582h96v96h-96z"/>
    <path stroke="#14171f" stroke-opacity=".15" d="M678 576v6m0 0h6m-6 0v6m0-6h-6m6 90v6m0 0h6m-6 0v6m0-6h-6m102-102v6m0 0h6m-6 0v6m0-6h-6m6 90v6m0 0h6m-6 0v6m0-6h-6"/>
    <path fill="#14171f" d="M725 630h1v1h-1zm0 47.5h1v1h-1zm0-96h1v1h-1z"/>
    <path fill="#14171f" d="M725 630h1v1h-1zm48.5 0h1v1h-1zm-96 0h1v1h-1zm47.5 47.5h1v1h-1zm0-96h1v1h-1z"/>
    <path stroke="#14171f" stroke-opacity=".09" d="M774 582h96v96h-96z"/>
    <path stroke="#14171f" stroke-opacity=".15" d="M774 576v6m0 0h6m-6 0v6m0-6h-6m6 90v6m0 0h6m-6 0v6m0-6h-6m102-102v6m0 0h6m-6 0v6m0-6h-6m6 90v6m0 0h6m-6 0v6m0-6h-6"/>
    <path fill="#14171f" d="M821 630h1v1h-1zm0 47.5h1v1h-1zm0-96h1v1h-1z"/>
    <path fill="#14171f" d="M821 630h1v1h-1zm48.5 0h1v1h-1zm-96 0h1v1h-1zm47.5 47.5h1v1h-1zm0-96h1v1h-1z"/>
    <path stroke="#14171f" stroke-opacity=".09" d="M870 582h96v96h-96z"/>
    <path stroke="#14171f" stroke-opacity=".15" d="M870 576v6m0 0h6m-6 0v6m0-6h-6m6 90v6m0 0h6m-6 0v6m0-6h-6m102-102v6m0 0h6m-6 0v6m0-6h-6m6 90v6m0 0h6m-6 0v6m0-6h-6"/>
    <path fill="#14171f" d="M917 630h1v1h-1zm0 47.5h1v1h-1zm0-96h1v1h-1z"/>
    <path fill="#14171f" d="M917 630h1v1h-1zm48.5 0h1v1h-1zm-96 0h1v1h-1zm47.5 47.5h1v1h-1zm0-96h1v1h-1z"/>
    <path stroke="#14171f" stroke-opacity=".09" d="M966 582h96v96h-96z"/>
    <path stroke="#14171f" stroke-opacity=".15" d="M966 576v6m0 0h6m-6 0v6m0-6h-6m6 90v6m0 0h6m-6 0v6m0-6h-6m102-102v6m0 0h6m-6 0v6m0-6h-6m6 90v6m0 0h6m-6 0v6m0-6h-6"/>
    <path fill="#14171f" d="M1013 630h1v1h-1zm0 47.5h1v1h-1zm0-96h1v1h-1z"/>
    <path fill="#14171f" d="M1013 630h1v1h-1zm48.5 0h1v1h-1zm-96 0h1v1h-1zm47.5 47.5h1v1h-1zm0-96h1v1h-1z"/>
    <path stroke="#14171f" stroke-opacity=".09" d="M1062 582h96v96h-96z"/>
    <path stroke="#14171f" stroke-opacity=".15" d="M1062 576v6m0 0h6m-6 0v6m0-6h-6m6 90v6m0 0h6m-6 0v6m0-6h-6m102-102v6m0 0h6m-6 0v6m0-6h-6m6 90v6m0 0h6m-6 0v6m0-6h-6"/>
    <path fill="#14171f" d="M1109 630h1v1h-1zm0 47.5h1v1h-1zm0-96h1v1h-1z"/>
    <path fill="#14171f" d="M1109 630h1v1h-1zm48.5 0h1v1h-1zm-96 0h1v1h-1zm47.5 47.5h1v1h-1zm0-96h1v1h-1z"/>
    <path stroke="#14171f" stroke-opacity=".09" d="M1158 582h96v96h-96z"/>
    <path stroke="#14171f" stroke-opacity=".15" d="M1158 576v6m0 0h6m-6 0v6m0-6h-6m6 90v6m0 0h6m-6 0v6m0-6h-6m102-102v6m0 0h6m-6 0v6m0-6h-6m6 90v6m0 0h6m-6 0v6m0-6h-6"/>
    <path fill="#14171f" d="M1205 630h1v1h-1zm0 47.5h1v1h-1zm0-96h1v1h-1z"/>
    <path fill="#14171f" d="M1205 630h1v1h-1zm48.5 0h1v1h-1zm-96 0h1v1h-1zm47.5 47.5h1v1h-1zm0-96h1v1h-1z"/>
    <path stroke="#14171f" stroke-opacity=".09" d="M1254 582h96v96h-96z"/>
    <path stroke="#14171f" stroke-opacity=".15" d="M1254 576v6m0 0h6m-6 0v6m0-6h-6m6 90v6m0 0h6m-6 0v6m0-6h-6m102-102v6m0 0h6m-6 0v6m0-6h-6m6 90v6m0 0h6m-6 0v6m0-6h-6"/>
    <path fill="#14171f" d="M1301 630h1v1h-1zm0 47.5h1v1h-1zm0-96h1v1h-1z"/>
    <path fill="#14171f" d="M1301 630h1v1h-1zm48.5 0h1v1h-1zm-96 0h1v1h-1zm47.5 47.5h1v1h-1zm0-96h1v1h-1z"/>
    <path stroke="#14171f" stroke-opacity=".09" d="M1350 582h96v96h-96z"/>
    <path stroke="#14171f" stroke-opacity=".15" d="M1350 576v6m0 0h6m-6 0v6m0-6h-6m6 90v6m0 0h6m-6 0v6m0-6h-6m102-102v6m0 0h6m-6 0v6m0-6h-6m6 90v6m0 0h6m-6 0v6m0-6h-6"/>
    <path fill="#14171f" d="M1397 630h1v1h-1zm0 47.5h1v1h-1zm0-96h1v1h-1z"/>
    <path fill="#14171f" d="M1397 630h1v1h-1zm48.5 0h1v1h-1zm-96 0h1v1h-1zm47.5 47.5h1v1h-1zm0-96h1v1h-1z"/>
    <path stroke="#14171f" stroke-opacity=".09" d="M6 678h96v96H6z"/>
    <path stroke="#14171f" stroke-opacity=".15" d="M6 672v6m0 0h6m-6 0v6m0-6H0m6 90v6m0 0h6m-6 0v6m0-6H0m102-102v6m0 0h6m-6 0v6m0-6h-6m6 90v6m0 0h6m-6 0v6m0-6h-6"/>
    <path fill="#14171f" d="M53 726h1v1h-1zm0 47.5h1v1h-1zm0-96h1v1h-1z"/>
    <path fill="#14171f" d="M53 726h1v1h-1zm48.5 0h1v1h-1zm-96 0h1v1h-1zM53 773.5h1v1h-1zm0-96h1v1h-1z"/>
    <path stroke="#14171f" stroke-opacity=".09" d="M102 678h96v96h-96z"/>
    <path stroke="#14171f" stroke-opacity=".15" d="M102 672v6m0 0h6m-6 0v6m0-6h-6m6 90v6m0 0h6m-6 0v6m0-6h-6m102-102v6m0 0h6m-6 0v6m0-6h-6m6 90v6m0 0h6m-6 0v6m0-6h-6"/>
    <path fill="#14171f" d="M149 726h1v1h-1zm0 47.5h1v1h-1zm0-96h1v1h-1z"/>
    <path fill="#14171f" d="M149 726h1v1h-1zm48.5 0h1v1h-1zm-96 0h1v1h-1zm47.5 47.5h1v1h-1zm0-96h1v1h-1z"/>
    <path stroke="#14171f" stroke-opacity=".09" d="M198 678h96v96h-96z"/>
    <path stroke="#14171f" stroke-opacity=".15" d="M198 672v6m0 0h6m-6 0v6m0-6h-6m6 90v6m0 0h6m-6 0v6m0-6h-6m102-102v6m0 0h6m-6 0v6m0-6h-6m6 90v6m0 0h6m-6 0v6m0-6h-6"/>
    <path fill="#14171f" d="M245 726h1v1h-1zm0 47.5h1v1h-1zm0-96h1v1h-1z"/>
    <path fill="#14171f" d="M245 726h1v1h-1zm48.5 0h1v1h-1zm-96 0h1v1h-1zm47.5 47.5h1v1h-1zm0-96h1v1h-1z"/>
    <path stroke="#14171f" stroke-opacity=".09" d="M294 678h96v96h-96z"/>
    <path stroke="#14171f" stroke-opacity=".15" d="M294 672v6m0 0h6m-6 0v6m0-6h-6m6 90v6m0 0h6m-6 0v6m0-6h-6m102-102v6m0 0h6m-6 0v6m0-6h-6m6 90v6m0 0h6m-6 0v6m0-6h-6"/>
    <path fill="#14171f" d="M341 726h1v1h-1zm0 47.5h1v1h-1zm0-96h1v1h-1z"/>
    <path fill="#14171f" d="M341 726h1v1h-1zm48.5 0h1v1h-1zm-96 0h1v1h-1zm47.5 47.5h1v1h-1zm0-96h1v1h-1z"/>
    <path stroke="#14171f" stroke-opacity=".09" d="M390 678h96v96h-96z"/>
    <path stroke="#14171f" stroke-opacity=".15" d="M390 672v6m0 0h6m-6 0v6m0-6h-6m6 90v6m0 0h6m-6 0v6m0-6h-6m102-102v6m0 0h6m-6 0v6m0-6h-6m6 90v6m0 0h6m-6 0v6m0-6h-6"/>
    <path fill="#14171f" d="M437 726h1v1h-1zm0 47.5h1v1h-1zm0-96h1v1h-1z"/>
    <path fill="#14171f" d="M437 726h1v1h-1zm48.5 0h1v1h-1zm-96 0h1v1h-1zm47.5 47.5h1v1h-1zm0-96h1v1h-1z"/>
    <path stroke="#14171f" stroke-opacity=".09" d="M486 678h96v96h-96z"/>
    <path stroke="#14171f" stroke-opacity=".15" d="M486 672v6m0 0h6m-6 0v6m0-6h-6m6 90v6m0 0h6m-6 0v6m0-6h-6m102-102v6m0 0h6m-6 0v6m0-6h-6m6 90v6m0 0h6m-6 0v6m0-6h-6"/>
    <path fill="#14171f" d="M533 726h1v1h-1zm0 47.5h1v1h-1zm0-96h1v1h-1z"/>
    <path fill="#14171f" d="M533 726h1v1h-1zm48.5 0h1v1h-1zm-96 0h1v1h-1zm47.5 47.5h1v1h-1zm0-96h1v1h-1z"/>
    <path stroke="#14171f" stroke-opacity=".09" d="M582 678h96v96h-96z"/>
    <path stroke="#14171f" stroke-opacity=".15" d="M582 672v6m0 0h6m-6 0v6m0-6h-6m6 90v6m0 0h6m-6 0v6m0-6h-6m102-102v6m0 0h6m-6 0v6m0-6h-6m6 90v6m0 0h6m-6 0v6m0-6h-6"/>
    <path fill="#14171f" d="M629 726h1v1h-1zm0 47.5h1v1h-1zm0-96h1v1h-1z"/>
    <path fill="#14171f" d="M629 726h1v1h-1zm48.5 0h1v1h-1zm-96 0h1v1h-1zm47.5 47.5h1v1h-1zm0-96h1v1h-1z"/>
    <path stroke="#14171f" stroke-opacity=".09" d="M678 678h96v96h-96z"/>
    <path stroke="#14171f" stroke-opacity=".15" d="M678 672v6m0 0h6m-6 0v6m0-6h-6m6 90v6m0 0h6m-6 0v6m0-6h-6m102-102v6m0 0h6m-6 0v6m0-6h-6m6 90v6m0 0h6m-6 0v6m0-6h-6"/>
    <path fill="#14171f" d="M725 726h1v1h-1zm0 47.5h1v1h-1zm0-96h1v1h-1z"/>
    <path fill="#14171f" d="M725 726h1v1h-1zm48.5 0h1v1h-1zm-96 0h1v1h-1zm47.5 47.5h1v1h-1zm0-96h1v1h-1z"/>
    <path stroke="#14171f" stroke-opacity=".09" d="M774 678h96v96h-96z"/>
    <path stroke="#14171f" stroke-opacity=".15" d="M774 672v6m0 0h6m-6 0v6m0-6h-6m6 90v6m0 0h6m-6 0v6m0-6h-6m102-102v6m0 0h6m-6 0v6m0-6h-6m6 90v6m0 0h6m-6 0v6m0-6h-6"/>
    <path fill="#14171f" d="M821 726h1v1h-1zm0 47.5h1v1h-1zm0-96h1v1h-1z"/>
    <path fill="#14171f" d="M821 726h1v1h-1zm48.5 0h1v1h-1zm-96 0h1v1h-1zm47.5 47.5h1v1h-1zm0-96h1v1h-1z"/>
    <path stroke="#14171f" stroke-opacity=".09" d="M870 678h96v96h-96z"/>
    <path stroke="#14171f" stroke-opacity=".15" d="M870 672v6m0 0h6m-6 0v6m0-6h-6m6 90v6m0 0h6m-6 0v6m0-6h-6m102-102v6m0 0h6m-6 0v6m0-6h-6m6 90v6m0 0h6m-6 0v6m0-6h-6"/>
    <path fill="#14171f" d="M917 726h1v1h-1zm0 47.5h1v1h-1zm0-96h1v1h-1z"/>
    <path fill="#14171f" d="M917 726h1v1h-1zm48.5 0h1v1h-1zm-96 0h1v1h-1zm47.5 47.5h1v1h-1zm0-96h1v1h-1z"/>
    <path stroke="#14171f" stroke-opacity=".09" d="M966 678h96v96h-96z"/>
    <path stroke="#14171f" stroke-opacity=".15" d="M966 672v6m0 0h6m-6 0v6m0-6h-6m6 90v6m0 0h6m-6 0v6m0-6h-6m102-102v6m0 0h6m-6 0v6m0-6h-6m6 90v6m0 0h6m-6 0v6m0-6h-6"/>
    <path fill="#14171f" d="M1013 726h1v1h-1zm0 47.5h1v1h-1zm0-96h1v1h-1z"/>
    <path fill="#14171f" d="M1013 726h1v1h-1zm48.5 0h1v1h-1zm-96 0h1v1h-1zm47.5 47.5h1v1h-1zm0-96h1v1h-1z"/>
    <path stroke="#14171f" stroke-opacity=".09" d="M1062 678h96v96h-96z"/>
    <path stroke="#14171f" stroke-opacity=".15" d="M1062 672v6m0 0h6m-6 0v6m0-6h-6m6 90v6m0 0h6m-6 0v6m0-6h-6m102-102v6m0 0h6m-6 0v6m0-6h-6m6 90v6m0 0h6m-6 0v6m0-6h-6"/>
    <path fill="#14171f" d="M1109 726h1v1h-1zm0 47.5h1v1h-1zm0-96h1v1h-1z"/>
    <path fill="#14171f" d="M1109 726h1v1h-1zm48.5 0h1v1h-1zm-96 0h1v1h-1zm47.5 47.5h1v1h-1zm0-96h1v1h-1z"/>
    <path stroke="#14171f" stroke-opacity=".09" d="M1158 678h96v96h-96z"/>
    <path stroke="#14171f" stroke-opacity=".15" d="M1158 672v6m0 0h6m-6 0v6m0-6h-6m6 90v6m0 0h6m-6 0v6m0-6h-6m102-102v6m0 0h6m-6 0v6m0-6h-6m6 90v6m0 0h6m-6 0v6m0-6h-6"/>
    <path fill="#14171f" d="M1205 726h1v1h-1zm0 47.5h1v1h-1zm0-96h1v1h-1z"/>
    <path fill="#14171f" d="M1205 726h1v1h-1zm48.5 0h1v1h-1zm-96 0h1v1h-1zm47.5 47.5h1v1h-1zm0-96h1v1h-1z"/>
    <path stroke="#14171f" stroke-opacity=".09" d="M1254 678h96v96h-96z"/>
    <path stroke="#14171f" stroke-opacity=".15" d="M1254 672v6m0 0h6m-6 0v6m0-6h-6m6 90v6m0 0h6m-6 0v6m0-6h-6m102-102v6m0 0h6m-6 0v6m0-6h-6m6 90v6m0 0h6m-6 0v6m0-6h-6"/>
    <path fill="#14171f" d="M1301 726h1v1h-1zm0 47.5h1v1h-1zm0-96h1v1h-1z"/>
    <path fill="#14171f" d="M1301 726h1v1h-1zm48.5 0h1v1h-1zm-96 0h1v1h-1zm47.5 47.5h1v1h-1zm0-96h1v1h-1z"/>
    <path stroke="#14171f" stroke-opacity=".09" d="M1350 678h96v96h-96z"/>
    <path stroke="#14171f" stroke-opacity=".15" d="M1350 672v6m0 0h6m-6 0v6m0-6h-6m6 90v6m0 0h6m-6 0v6m0-6h-6m102-102v6m0 0h6m-6 0v6m0-6h-6m6 90v6m0 0h6m-6 0v6m0-6h-6"/>
    <path fill="#14171f" d="M1397 726h1v1h-1zm0 47.5h1v1h-1zm0-96h1v1h-1z"/>
    <path fill="#14171f" d="M1397 726h1v1h-1zm48.5 0h1v1h-1zm-96 0h1v1h-1zm47.5 47.5h1v1h-1zm0-96h1v1h-1z"/>
    <path stroke="#14171f" stroke-opacity=".09" d="M6 774h96v96H6z"/>
    <path stroke="#14171f" stroke-opacity=".15" d="M6 768v6m0 0h6m-6 0v6m0-6H0m6 90v6m0 0h6m-6 0v6m0-6H0m102-102v6m0 0h6m-6 0v6m0-6h-6m6 90v6m0 0h6m-6 0v6m0-6h-6"/>
    <path fill="#14171f" d="M53 822h1v1h-1zm0 47.5h1v1h-1zm0-96h1v1h-1z"/>
    <path fill="#14171f" d="M53 822h1v1h-1zm48.5 0h1v1h-1zm-96 0h1v1h-1zM53 869.5h1v1h-1zm0-96h1v1h-1z"/>
    <path stroke="#14171f" stroke-opacity=".09" d="M102 774h96v96h-96z"/>
    <path stroke="#14171f" stroke-opacity=".15" d="M102 768v6m0 0h6m-6 0v6m0-6h-6m6 90v6m0 0h6m-6 0v6m0-6h-6m102-102v6m0 0h6m-6 0v6m0-6h-6m6 90v6m0 0h6m-6 0v6m0-6h-6"/>
    <path fill="#14171f" d="M149 822h1v1h-1zm0 47.5h1v1h-1zm0-96h1v1h-1z"/>
    <path fill="#14171f" d="M149 822h1v1h-1zm48.5 0h1v1h-1zm-96 0h1v1h-1zm47.5 47.5h1v1h-1zm0-96h1v1h-1z"/>
    <path stroke="#14171f" stroke-opacity=".09" d="M198 774h96v96h-96z"/>
    <path stroke="#14171f" stroke-opacity=".15" d="M198 768v6m0 0h6m-6 0v6m0-6h-6m6 90v6m0 0h6m-6 0v6m0-6h-6m102-102v6m0 0h6m-6 0v6m0-6h-6m6 90v6m0 0h6m-6 0v6m0-6h-6"/>
    <path fill="#14171f" d="M245 822h1v1h-1zm0 47.5h1v1h-1zm0-96h1v1h-1z"/>
    <path fill="#14171f" d="M245 822h1v1h-1zm48.5 0h1v1h-1zm-96 0h1v1h-1zm47.5 47.5h1v1h-1zm0-96h1v1h-1z"/>
    <path stroke="#14171f" stroke-opacity=".09" d="M294 774h96v96h-96z"/>
    <path stroke="#14171f" stroke-opacity=".15" d="M294 768v6m0 0h6m-6 0v6m0-6h-6m6 90v6m0 0h6m-6 0v6m0-6h-6m102-102v6m0 0h6m-6 0v6m0-6h-6m6 90v6m0 0h6m-6 0v6m0-6h-6"/>
    <path fill="#14171f" d="M341 822h1v1h-1zm0 47.5h1v1h-1zm0-96h1v1h-1z"/>
    <path fill="#14171f" d="M341 822h1v1h-1zm48.5 0h1v1h-1zm-96 0h1v1h-1zm47.5 47.5h1v1h-1zm0-96h1v1h-1z"/>
    <path stroke="#14171f" stroke-opacity=".09" d="M390 774h96v96h-96z"/>
    <path stroke="#14171f" stroke-opacity=".15" d="M390 768v6m0 0h6m-6 0v6m0-6h-6m6 90v6m0 0h6m-6 0v6m0-6h-6m102-102v6m0 0h6m-6 0v6m0-6h-6m6 90v6m0 0h6m-6 0v6m0-6h-6"/>
    <path fill="#14171f" d="M437 822h1v1h-1zm0 47.5h1v1h-1zm0-96h1v1h-1z"/>
    <path fill="#14171f" d="M437 822h1v1h-1zm48.5 0h1v1h-1zm-96 0h1v1h-1zm47.5 47.5h1v1h-1zm0-96h1v1h-1z"/>
    <path stroke="#14171f" stroke-opacity=".09" d="M486 774h96v96h-96z"/>
    <path stroke="#14171f" stroke-opacity=".15" d="M486 768v6m0 0h6m-6 0v6m0-6h-6m6 90v6m0 0h6m-6 0v6m0-6h-6m102-102v6m0 0h6m-6 0v6m0-6h-6m6 90v6m0 0h6m-6 0v6m0-6h-6"/>
    <path fill="#14171f" d="M533 822h1v1h-1zm0 47.5h1v1h-1zm0-96h1v1h-1z"/>
    <path fill="#14171f" d="M533 822h1v1h-1zm48.5 0h1v1h-1zm-96 0h1v1h-1zm47.5 47.5h1v1h-1zm0-96h1v1h-1z"/>
    <path stroke="#14171f" stroke-opacity=".09" d="M582 774h96v96h-96z"/>
    <path stroke="#14171f" stroke-opacity=".15" d="M582 768v6m0 0h6m-6 0v6m0-6h-6m6 90v6m0 0h6m-6 0v6m0-6h-6m102-102v6m0 0h6m-6 0v6m0-6h-6m6 90v6m0 0h6m-6 0v6m0-6h-6"/>
    <path fill="#14171f" d="M629 822h1v1h-1zm0 47.5h1v1h-1zm0-96h1v1h-1z"/>
    <path fill="#14171f" d="M629 822h1v1h-1zm48.5 0h1v1h-1zm-96 0h1v1h-1zm47.5 47.5h1v1h-1zm0-96h1v1h-1z"/>
    <path stroke="#14171f" stroke-opacity=".09" d="M678 774h96v96h-96z"/>
    <path stroke="#14171f" stroke-opacity=".15" d="M678 768v6m0 0h6m-6 0v6m0-6h-6m6 90v6m0 0h6m-6 0v6m0-6h-6m102-102v6m0 0h6m-6 0v6m0-6h-6m6 90v6m0 0h6m-6 0v6m0-6h-6"/>
    <path fill="#14171f" d="M725 822h1v1h-1zm0 47.5h1v1h-1zm0-96h1v1h-1z"/>
    <path fill="#14171f" d="M725 822h1v1h-1zm48.5 0h1v1h-1zm-96 0h1v1h-1zm47.5 47.5h1v1h-1zm0-96h1v1h-1z"/>
    <path stroke="#14171f" stroke-opacity=".09" d="M774 774h96v96h-96z"/>
    <path stroke="#14171f" stroke-opacity=".15" d="M774 768v6m0 0h6m-6 0v6m0-6h-6m6 90v6m0 0h6m-6 0v6m0-6h-6m102-102v6m0 0h6m-6 0v6m0-6h-6m6 90v6m0 0h6m-6 0v6m0-6h-6"/>
    <path fill="#14171f" d="M821 822h1v1h-1zm0 47.5h1v1h-1zm0-96h1v1h-1z"/>
    <path fill="#14171f" d="M821 822h1v1h-1zm48.5 0h1v1h-1zm-96 0h1v1h-1zm47.5 47.5h1v1h-1zm0-96h1v1h-1z"/>
    <path stroke="#14171f" stroke-opacity=".09" d="M870 774h96v96h-96z"/>
    <path stroke="#14171f" stroke-opacity=".15" d="M870 768v6m0 0h6m-6 0v6m0-6h-6m6 90v6m0 0h6m-6 0v6m0-6h-6m102-102v6m0 0h6m-6 0v6m0-6h-6m6 90v6m0 0h6m-6 0v6m0-6h-6"/>
    <path fill="#14171f" d="M917 822h1v1h-1zm0 47.5h1v1h-1zm0-96h1v1h-1z"/>
    <path fill="#14171f" d="M917 822h1v1h-1zm48.5 0h1v1h-1zm-96 0h1v1h-1zm47.5 47.5h1v1h-1zm0-96h1v1h-1z"/>
    <path stroke="#14171f" stroke-opacity=".09" d="M966 774h96v96h-96z"/>
    <path stroke="#14171f" stroke-opacity=".15" d="M966 768v6m0 0h6m-6 0v6m0-6h-6m6 90v6m0 0h6m-6 0v6m0-6h-6m102-102v6m0 0h6m-6 0v6m0-6h-6m6 90v6m0 0h6m-6 0v6m0-6h-6"/>
    <path fill="#14171f" d="M1013 822h1v1h-1zm0 47.5h1v1h-1zm0-96h1v1h-1z"/>
    <path fill="#14171f" d="M1013 822h1v1h-1zm48.5 0h1v1h-1zm-96 0h1v1h-1zm47.5 47.5h1v1h-1zm0-96h1v1h-1z"/>
    <path stroke="#14171f" stroke-opacity=".09" d="M1062 774h96v96h-96z"/>
    <path stroke="#14171f" stroke-opacity=".15" d="M1062 768v6m0 0h6m-6 0v6m0-6h-6m6 90v6m0 0h6m-6 0v6m0-6h-6m102-102v6m0 0h6m-6 0v6m0-6h-6m6 90v6m0 0h6m-6 0v6m0-6h-6"/>
    <path fill="#14171f" d="M1109 822h1v1h-1zm0 47.5h1v1h-1zm0-96h1v1h-1z"/>
    <path fill="#14171f" d="M1109 822h1v1h-1zm48.5 0h1v1h-1zm-96 0h1v1h-1zm47.5 47.5h1v1h-1zm0-96h1v1h-1z"/>
    <path stroke="#14171f" stroke-opacity=".09" d="M1158 774h96v96h-96z"/>
    <path stroke="#14171f" stroke-opacity=".15" d="M1158 768v6m0 0h6m-6 0v6m0-6h-6m6 90v6m0 0h6m-6 0v6m0-6h-6m102-102v6m0 0h6m-6 0v6m0-6h-6m6 90v6m0 0h6m-6 0v6m0-6h-6"/>
    <path fill="#14171f" d="M1205 822h1v1h-1zm0 47.5h1v1h-1zm0-96h1v1h-1z"/>
    <path fill="#14171f" d="M1205 822h1v1h-1zm48.5 0h1v1h-1zm-96 0h1v1h-1zm47.5 47.5h1v1h-1zm0-96h1v1h-1z"/>
    <path stroke="#14171f" stroke-opacity=".09" d="M1254 774h96v96h-96z"/>
    <path stroke="#14171f" stroke-opacity=".15" d="M1254 768v6m0 0h6m-6 0v6m0-6h-6m6 90v6m0 0h6m-6 0v6m0-6h-6m102-102v6m0 0h6m-6 0v6m0-6h-6m6 90v6m0 0h6m-6 0v6m0-6h-6"/>
    <path fill="#14171f" d="M1301 822h1v1h-1zm0 47.5h1v1h-1zm0-96h1v1h-1z"/>
    <path fill="#14171f" d="M1301 822h1v1h-1zm48.5 0h1v1h-1zm-96 0h1v1h-1zm47.5 47.5h1v1h-1zm0-96h1v1h-1z"/>
    <path stroke="#14171f" stroke-opacity=".09" d="M1350 774h96v96h-96z"/>
    <path stroke="#14171f" stroke-opacity=".15" d="M1350 768v6m0 0h6m-6 0v6m0-6h-6m6 90v6m0 0h6m-6 0v6m0-6h-6m102-102v6m0 0h6m-6 0v6m0-6h-6m6 90v6m0 0h6m-6 0v6m0-6h-6"/>
    <path fill="#14171f" d="M1397 822h1v1h-1zm0 47.5h1v1h-1zm0-96h1v1h-1z"/>
    <path fill="#14171f" d="M1397 822h1v1h-1zm48.5 0h1v1h-1zm-96 0h1v1h-1zm47.5 47.5h1v1h-1zm0-96h1v1h-1z"/>
    <path stroke="#14171f" stroke-opacity=".09" d="M6 870h96v96H6z"/>
    <path stroke="#14171f" stroke-opacity=".15" d="M6 864v6m0 0h6m-6 0v6m0-6H0m6 90v6m0 0h6m-6 0v6m0-6H0m102-102v6m0 0h6m-6 0v6m0-6h-6m6 90v6m0 0h6m-6 0v6m0-6h-6"/>
    <path fill="#14171f" d="M53 918h1v1h-1zm0 47.5h1v1h-1zm0-96h1v1h-1z"/>
    <path fill="#14171f" d="M53 918h1v1h-1zm48.5 0h1v1h-1zm-96 0h1v1h-1zM53 965.5h1v1h-1zm0-96h1v1h-1z"/>
    <path stroke="#14171f" stroke-opacity=".09" d="M102 870h96v96h-96z"/>
    <path stroke="#14171f" stroke-opacity=".15" d="M102 864v6m0 0h6m-6 0v6m0-6h-6m6 90v6m0 0h6m-6 0v6m0-6h-6m102-102v6m0 0h6m-6 0v6m0-6h-6m6 90v6m0 0h6m-6 0v6m0-6h-6"/>
    <path fill="#14171f" d="M149 918h1v1h-1zm0 47.5h1v1h-1zm0-96h1v1h-1z"/>
    <path fill="#14171f" d="M149 918h1v1h-1zm48.5 0h1v1h-1zm-96 0h1v1h-1zm47.5 47.5h1v1h-1zm0-96h1v1h-1z"/>
    <path stroke="#14171f" stroke-opacity=".09" d="M198 870h96v96h-96z"/>
    <path stroke="#14171f" stroke-opacity=".15" d="M198 864v6m0 0h6m-6 0v6m0-6h-6m6 90v6m0 0h6m-6 0v6m0-6h-6m102-102v6m0 0h6m-6 0v6m0-6h-6m6 90v6m0 0h6m-6 0v6m0-6h-6"/>
    <path fill="#14171f" d="M245 918h1v1h-1zm0 47.5h1v1h-1zm0-96h1v1h-1z"/>
    <path fill="#14171f" d="M245 918h1v1h-1zm48.5 0h1v1h-1zm-96 0h1v1h-1zm47.5 47.5h1v1h-1zm0-96h1v1h-1z"/>
    <path stroke="#14171f" stroke-opacity=".09" d="M294 870h96v96h-96z"/>
    <path stroke="#14171f" stroke-opacity=".15" d="M294 864v6m0 0h6m-6 0v6m0-6h-6m6 90v6m0 0h6m-6 0v6m0-6h-6m102-102v6m0 0h6m-6 0v6m0-6h-6m6 90v6m0 0h6m-6 0v6m0-6h-6"/>
    <path fill="#14171f" d="M341 918h1v1h-1zm0 47.5h1v1h-1zm0-96h1v1h-1z"/>
    <path fill="#14171f" d="M341 918h1v1h-1zm48.5 0h1v1h-1zm-96 0h1v1h-1zm47.5 47.5h1v1h-1zm0-96h1v1h-1z"/>
    <path stroke="#14171f" stroke-opacity=".09" d="M390 870h96v96h-96z"/>
    <path stroke="#14171f" stroke-opacity=".15" d="M390 864v6m0 0h6m-6 0v6m0-6h-6m6 90v6m0 0h6m-6 0v6m0-6h-6m102-102v6m0 0h6m-6 0v6m0-6h-6m6 90v6m0 0h6m-6 0v6m0-6h-6"/>
    <path fill="#14171f" d="M437 918h1v1h-1zm0 47.5h1v1h-1zm0-96h1v1h-1z"/>
    <path fill="#14171f" d="M437 918h1v1h-1zm48.5 0h1v1h-1zm-96 0h1v1h-1zm47.5 47.5h1v1h-1zm0-96h1v1h-1z"/>
    <path stroke="#14171f" stroke-opacity=".09" d="M486 870h96v96h-96z"/>
    <path stroke="#14171f" stroke-opacity=".15" d="M486 864v6m0 0h6m-6 0v6m0-6h-6m6 90v6m0 0h6m-6 0v6m0-6h-6m102-102v6m0 0h6m-6 0v6m0-6h-6m6 90v6m0 0h6m-6 0v6m0-6h-6"/>
    <path fill="#14171f" d="M533 918h1v1h-1zm0 47.5h1v1h-1zm0-96h1v1h-1z"/>
    <path fill="#14171f" d="M533 918h1v1h-1zm48.5 0h1v1h-1zm-96 0h1v1h-1zm47.5 47.5h1v1h-1zm0-96h1v1h-1z"/>
    <path stroke="#14171f" stroke-opacity=".09" d="M582 870h96v96h-96z"/>
    <path stroke="#14171f" stroke-opacity=".15" d="M582 864v6m0 0h6m-6 0v6m0-6h-6m6 90v6m0 0h6m-6 0v6m0-6h-6m102-102v6m0 0h6m-6 0v6m0-6h-6m6 90v6m0 0h6m-6 0v6m0-6h-6"/>
    <path fill="#14171f" d="M629 918h1v1h-1zm0 47.5h1v1h-1zm0-96h1v1h-1z"/>
    <path fill="#14171f" d="M629 918h1v1h-1zm48.5 0h1v1h-1zm-96 0h1v1h-1zm47.5 47.5h1v1h-1zm0-96h1v1h-1z"/>
    <path stroke="#14171f" stroke-opacity=".09" d="M678 870h96v96h-96z"/>
    <path stroke="#14171f" stroke-opacity=".15" d="M678 864v6m0 0h6m-6 0v6m0-6h-6m6 90v6m0 0h6m-6 0v6m0-6h-6m102-102v6m0 0h6m-6 0v6m0-6h-6m6 90v6m0 0h6m-6 0v6m0-6h-6"/>
    <path fill="#14171f" d="M725 918h1v1h-1zm0 47.5h1v1h-1zm0-96h1v1h-1z"/>
    <path fill="#14171f" d="M725 918h1v1h-1zm48.5 0h1v1h-1zm-96 0h1v1h-1zm47.5 47.5h1v1h-1zm0-96h1v1h-1z"/>
    <path stroke="#14171f" stroke-opacity=".09" d="M774 870h96v96h-96z"/>
    <path stroke="#14171f" stroke-opacity=".15" d="M774 864v6m0 0h6m-6 0v6m0-6h-6m6 90v6m0 0h6m-6 0v6m0-6h-6m102-102v6m0 0h6m-6 0v6m0-6h-6m6 90v6m0 0h6m-6 0v6m0-6h-6"/>
    <path fill="#14171f" d="M821 918h1v1h-1zm0 47.5h1v1h-1zm0-96h1v1h-1z"/>
    <path fill="#14171f" d="M821 918h1v1h-1zm48.5 0h1v1h-1zm-96 0h1v1h-1zm47.5 47.5h1v1h-1zm0-96h1v1h-1z"/>
    <path stroke="#14171f" stroke-opacity=".09" d="M870 870h96v96h-96z"/>
    <path stroke="#14171f" stroke-opacity=".15" d="M870 864v6m0 0h6m-6 0v6m0-6h-6m6 90v6m0 0h6m-6 0v6m0-6h-6m102-102v6m0 0h6m-6 0v6m0-6h-6m6 90v6m0 0h6m-6 0v6m0-6h-6"/>
    <path fill="#14171f" d="M917 918h1v1h-1zm0 47.5h1v1h-1zm0-96h1v1h-1z"/>
    <path fill="#14171f" d="M917 918h1v1h-1zm48.5 0h1v1h-1zm-96 0h1v1h-1zm47.5 47.5h1v1h-1zm0-96h1v1h-1z"/>
    <path stroke="#14171f" stroke-opacity=".09" d="M966 870h96v96h-96z"/>
    <path stroke="#14171f" stroke-opacity=".15" d="M966 864v6m0 0h6m-6 0v6m0-6h-6m6 90v6m0 0h6m-6 0v6m0-6h-6m102-102v6m0 0h6m-6 0v6m0-6h-6m6 90v6m0 0h6m-6 0v6m0-6h-6"/>
    <path fill="#14171f" d="M1013 918h1v1h-1zm0 47.5h1v1h-1zm0-96h1v1h-1z"/>
    <path fill="#14171f" d="M1013 918h1v1h-1zm48.5 0h1v1h-1zm-96 0h1v1h-1zm47.5 47.5h1v1h-1zm0-96h1v1h-1z"/>
    <path stroke="#14171f" stroke-opacity=".09" d="M1062 870h96v96h-96z"/>
    <path stroke="#14171f" stroke-opacity=".15" d="M1062 864v6m0 0h6m-6 0v6m0-6h-6m6 90v6m0 0h6m-6 0v6m0-6h-6m102-102v6m0 0h6m-6 0v6m0-6h-6m6 90v6m0 0h6m-6 0v6m0-6h-6"/>
    <path fill="#14171f" d="M1109 918h1v1h-1zm0 47.5h1v1h-1zm0-96h1v1h-1z"/>
    <path fill="#14171f" d="M1109 918h1v1h-1zm48.5 0h1v1h-1zm-96 0h1v1h-1zm47.5 47.5h1v1h-1zm0-96h1v1h-1z"/>
    <path stroke="#14171f" stroke-opacity=".09" d="M1158 870h96v96h-96z"/>
    <path stroke="#14171f" stroke-opacity=".15" d="M1158 864v6m0 0h6m-6 0v6m0-6h-6m6 90v6m0 0h6m-6 0v6m0-6h-6m102-102v6m0 0h6m-6 0v6m0-6h-6m6 90v6m0 0h6m-6 0v6m0-6h-6"/>
    <path fill="#14171f" d="M1205 918h1v1h-1zm0 47.5h1v1h-1zm0-96h1v1h-1z"/>
    <path fill="#14171f" d="M1205 918h1v1h-1zm48.5 0h1v1h-1zm-96 0h1v1h-1zm47.5 47.5h1v1h-1zm0-96h1v1h-1z"/>
    <path stroke="#14171f" stroke-opacity=".09" d="M1254 870h96v96h-96z"/>
    <path stroke="#14171f" stroke-opacity=".15" d="M1254 864v6m0 0h6m-6 0v6m0-6h-6m6 90v6m0 0h6m-6 0v6m0-6h-6m102-102v6m0 0h6m-6 0v6m0-6h-6m6 90v6m0 0h6m-6 0v6m0-6h-6"/>
    <path fill="#14171f" d="M1301 918h1v1h-1zm0 47.5h1v1h-1zm0-96h1v1h-1z"/>
    <path fill="#14171f" d="M1301 918h1v1h-1zm48.5 0h1v1h-1zm-96 0h1v1h-1zm47.5 47.5h1v1h-1zm0-96h1v1h-1z"/>
    <path stroke="#14171f" stroke-opacity=".09" d="M1350 870h96v96h-96z"/>
    <path stroke="#14171f" stroke-opacity=".15" d="M1350 864v6m0 0h6m-6 0v6m0-6h-6m6 90v6m0 0h6m-6 0v6m0-6h-6m102-102v6m0 0h6m-6 0v6m0-6h-6m6 90v6m0 0h6m-6 0v6m0-6h-6"/>
    <path fill="#14171f" d="M1397 918h1v1h-1zm0 47.5h1v1h-1zm0-96h1v1h-1z"/>
    <path fill="#14171f" d="M1397 918h1v1h-1zm48.5 0h1v1h-1zm-96 0h1v1h-1zm47.5 47.5h1v1h-1zm0-96h1v1h-1z"/>
    <path stroke="#14171f" stroke-opacity=".09" d="M6 966h96v96H6z"/>
    <path stroke="#14171f" stroke-opacity=".15" d="M6 960v6m0 0h6m-6 0v6m0-6H0m6 90v6m0 0h6m-6 0v6m0-6H0m102-102v6m0 0h6m-6 0v6m0-6h-6m6 90v6m0 0h6m-6 0v6m0-6h-6"/>
    <path fill="#14171f" d="M53 1014h1v1h-1zm0 47.5h1v1h-1zm0-96h1v1h-1z"/>
    <path fill="#14171f" d="M53 1014h1v1h-1zm48.5 0h1v1h-1zm-96 0h1v1h-1zm47.5 47.5h1v1h-1zm0-96h1v1h-1z"/>
    <path stroke="#14171f" stroke-opacity=".09" d="M102 966h96v96h-96z"/>
    <path stroke="#14171f" stroke-opacity=".15" d="M102 960v6m0 0h6m-6 0v6m0-6h-6m6 90v6m0 0h6m-6 0v6m0-6h-6m102-102v6m0 0h6m-6 0v6m0-6h-6m6 90v6m0 0h6m-6 0v6m0-6h-6"/>
    <path fill="#14171f" d="M149 1014h1v1h-1zm0 47.5h1v1h-1zm0-96h1v1h-1z"/>
    <path fill="#14171f" d="M149 1014h1v1h-1zm48.5 0h1v1h-1zm-96 0h1v1h-1zm47.5 47.5h1v1h-1zm0-96h1v1h-1z"/>
    <path stroke="#14171f" stroke-opacity=".09" d="M198 966h96v96h-96z"/>
    <path stroke="#14171f" stroke-opacity=".15" d="M198 960v6m0 0h6m-6 0v6m0-6h-6m6 90v6m0 0h6m-6 0v6m0-6h-6m102-102v6m0 0h6m-6 0v6m0-6h-6m6 90v6m0 0h6m-6 0v6m0-6h-6"/>
    <path fill="#14171f" d="M245 1014h1v1h-1zm0 47.5h1v1h-1zm0-96h1v1h-1z"/>
    <path fill="#14171f" d="M245 1014h1v1h-1zm48.5 0h1v1h-1zm-96 0h1v1h-1zm47.5 47.5h1v1h-1zm0-96h1v1h-1z"/>
    <path stroke="#14171f" stroke-opacity=".09" d="M294 966h96v96h-96z"/>
    <path stroke="#14171f" stroke-opacity=".15" d="M294 960v6m0 0h6m-6 0v6m0-6h-6m6 90v6m0 0h6m-6 0v6m0-6h-6m102-102v6m0 0h6m-6 0v6m0-6h-6m6 90v6m0 0h6m-6 0v6m0-6h-6"/>
    <path fill="#14171f" d="M341 1014h1v1h-1zm0 47.5h1v1h-1zm0-96h1v1h-1z"/>
    <path fill="#14171f" d="M341 1014h1v1h-1zm48.5 0h1v1h-1zm-96 0h1v1h-1zm47.5 47.5h1v1h-1zm0-96h1v1h-1z"/>
    <path stroke="#14171f" stroke-opacity=".09" d="M390 966h96v96h-96z"/>
    <path stroke="#14171f" stroke-opacity=".15" d="M390 960v6m0 0h6m-6 0v6m0-6h-6m6 90v6m0 0h6m-6 0v6m0-6h-6m102-102v6m0 0h6m-6 0v6m0-6h-6m6 90v6m0 0h6m-6 0v6m0-6h-6"/>
    <path fill="#14171f" d="M437 1014h1v1h-1zm0 47.5h1v1h-1zm0-96h1v1h-1z"/>
    <path fill="#14171f" d="M437 1014h1v1h-1zm48.5 0h1v1h-1zm-96 0h1v1h-1zm47.5 47.5h1v1h-1zm0-96h1v1h-1z"/>
    <path stroke="#14171f" stroke-opacity=".09" d="M486 966h96v96h-96z"/>
    <path stroke="#14171f" stroke-opacity=".15" d="M486 960v6m0 0h6m-6 0v6m0-6h-6m6 90v6m0 0h6m-6 0v6m0-6h-6m102-102v6m0 0h6m-6 0v6m0-6h-6m6 90v6m0 0h6m-6 0v6m0-6h-6"/>
    <path fill="#14171f" d="M533 1014h1v1h-1zm0 47.5h1v1h-1zm0-96h1v1h-1z"/>
    <path fill="#14171f" d="M533 1014h1v1h-1zm48.5 0h1v1h-1zm-96 0h1v1h-1zm47.5 47.5h1v1h-1zm0-96h1v1h-1z"/>
    <path stroke="#14171f" stroke-opacity=".09" d="M582 966h96v96h-96z"/>
    <path stroke="#14171f" stroke-opacity=".15" d="M582 960v6m0 0h6m-6 0v6m0-6h-6m6 90v6m0 0h6m-6 0v6m0-6h-6m102-102v6m0 0h6m-6 0v6m0-6h-6m6 90v6m0 0h6m-6 0v6m0-6h-6"/>
    <path fill="#14171f" d="M629 1014h1v1h-1zm0 47.5h1v1h-1zm0-96h1v1h-1z"/>
    <path fill="#14171f" d="M629 1014h1v1h-1zm48.5 0h1v1h-1zm-96 0h1v1h-1zm47.5 47.5h1v1h-1zm0-96h1v1h-1z"/>
    <path stroke="#14171f" stroke-opacity=".09" d="M678 966h96v96h-96z"/>
    <path stroke="#14171f" stroke-opacity=".15" d="M678 960v6m0 0h6m-6 0v6m0-6h-6m6 90v6m0 0h6m-6 0v6m0-6h-6m102-102v6m0 0h6m-6 0v6m0-6h-6m6 90v6m0 0h6m-6 0v6m0-6h-6"/>
    <path fill="#14171f" d="M725 1014h1v1h-1zm0 47.5h1v1h-1zm0-96h1v1h-1z"/>
    <path fill="#14171f" d="M725 1014h1v1h-1zm48.5 0h1v1h-1zm-96 0h1v1h-1zm47.5 47.5h1v1h-1zm0-96h1v1h-1z"/>
    <path stroke="#14171f" stroke-opacity=".09" d="M774 966h96v96h-96z"/>
    <path stroke="#14171f" stroke-opacity=".15" d="M774 960v6m0 0h6m-6 0v6m0-6h-6m6 90v6m0 0h6m-6 0v6m0-6h-6m102-102v6m0 0h6m-6 0v6m0-6h-6m6 90v6m0 0h6m-6 0v6m0-6h-6"/>
    <path fill="#14171f" d="M821 1014h1v1h-1zm0 47.5h1v1h-1zm0-96h1v1h-1z"/>
    <path fill="#14171f" d="M821 1014h1v1h-1zm48.5 0h1v1h-1zm-96 0h1v1h-1zm47.5 47.5h1v1h-1zm0-96h1v1h-1z"/>
    <path stroke="#14171f" stroke-opacity=".09" d="M870 966h96v96h-96z"/>
    <path stroke="#14171f" stroke-opacity=".15" d="M870 960v6m0 0h6m-6 0v6m0-6h-6m6 90v6m0 0h6m-6 0v6m0-6h-6m102-102v6m0 0h6m-6 0v6m0-6h-6m6 90v6m0 0h6m-6 0v6m0-6h-6"/>
    <path fill="#14171f" d="M917 1014h1v1h-1zm0 47.5h1v1h-1zm0-96h1v1h-1z"/>
    <path fill="#14171f" d="M917 1014h1v1h-1zm48.5 0h1v1h-1zm-96 0h1v1h-1zm47.5 47.5h1v1h-1zm0-96h1v1h-1z"/>
    <path stroke="#14171f" stroke-opacity=".09" d="M966 966h96v96h-96z"/>
    <path stroke="#14171f" stroke-opacity=".15" d="M966 960v6m0 0h6m-6 0v6m0-6h-6m6 90v6m0 0h6m-6 0v6m0-6h-6m102-102v6m0 0h6m-6 0v6m0-6h-6m6 90v6m0 0h6m-6 0v6m0-6h-6"/>
    <path fill="#14171f" d="M1013 1014h1v1h-1zm0 47.5h1v1h-1zm0-96h1v1h-1z"/>
    <path fill="#14171f" d="M1013 1014h1v1h-1zm48.5 0h1v1h-1zm-96 0h1v1h-1zm47.5 47.5h1v1h-1zm0-96h1v1h-1z"/>
    <path stroke="#14171f" stroke-opacity=".09" d="M1062 966h96v96h-96z"/>
    <path stroke="#14171f" stroke-opacity=".15" d="M1062 960v6m0 0h6m-6 0v6m0-6h-6m6 90v6m0 0h6m-6 0v6m0-6h-6m102-102v6m0 0h6m-6 0v6m0-6h-6m6 90v6m0 0h6m-6 0v6m0-6h-6"/>
    <path fill="#14171f" d="M1109 1014h1v1h-1zm0 47.5h1v1h-1zm0-96h1v1h-1z"/>
    <path fill="#14171f" d="M1109 1014h1v1h-1zm48.5 0h1v1h-1zm-96 0h1v1h-1zm47.5 47.5h1v1h-1zm0-96h1v1h-1z"/>
    <path stroke="#14171f" stroke-opacity=".09" d="M1158 966h96v96h-96z"/>
    <path stroke="#14171f" stroke-opacity=".15" d="M1158 960v6m0 0h6m-6 0v6m0-6h-6m6 90v6m0 0h6m-6 0v6m0-6h-6m102-102v6m0 0h6m-6 0v6m0-6h-6m6 90v6m0 0h6m-6 0v6m0-6h-6"/>
    <path fill="#14171f" d="M1205 1014h1v1h-1zm0 47.5h1v1h-1zm0-96h1v1h-1z"/>
    <path fill="#14171f" d="M1205 1014h1v1h-1zm48.5 0h1v1h-1zm-96 0h1v1h-1zm47.5 47.5h1v1h-1zm0-96h1v1h-1z"/>
    <path stroke="#14171f" stroke-opacity=".09" d="M1254 966h96v96h-96z"/>
    <path stroke="#14171f" stroke-opacity=".15" d="M1254 960v6m0 0h6m-6 0v6m0-6h-6m6 90v6m0 0h6m-6 0v6m0-6h-6m102-102v6m0 0h6m-6 0v6m0-6h-6m6 90v6m0 0h6m-6 0v6m0-6h-6"/>
    <path fill="#14171f" d="M1301 1014h1v1h-1zm0 47.5h1v1h-1zm0-96h1v1h-1z"/>
    <path fill="#14171f" d="M1301 1014h1v1h-1zm48.5 0h1v1h-1zm-96 0h1v1h-1zm47.5 47.5h1v1h-1zm0-96h1v1h-1z"/>
    <path stroke="#14171f" stroke-opacity=".09" d="M1350 966h96v96h-96z"/>
    <path stroke="#14171f" stroke-opacity=".15" d="M1350 960v6m0 0h6m-6 0v6m0-6h-6m6 90v6m0 0h6m-6 0v6m0-6h-6m102-102v6m0 0h6m-6 0v6m0-6h-6m6 90v6m0 0h6m-6 0v6m0-6h-6"/>
    <path fill="#14171f" d="M1397 1014h1v1h-1zm0 47.5h1v1h-1zm0-96h1v1h-1z"/>
    <path fill="#14171f" d="M1397 1014h1v1h-1zm48.5 0h1v1h-1zm-96 0h1v1h-1zm47.5 47.5h1v1h-1zm0-96h1v1h-1z"/>
    <path stroke="#14171f" stroke-opacity=".09" d="M6 1062h96v96H6z"/>
    <path stroke="#14171f" stroke-opacity=".15" d="M6 1056v6m0 0h6m-6 0v6m0-6H0m6 90v6m0 0h6m-6 0v6m0-6H0m102-102v6m0 0h6m-6 0v6m0-6h-6m6 90v6m0 0h6m-6 0v6m0-6h-6"/>
    <path fill="#14171f" d="M53 1110h1v1h-1zm0 47.5h1v1h-1zm0-96h1v1h-1z"/>
    <path fill="#14171f" d="M53 1110h1v1h-1zm48.5 0h1v1h-1zm-96 0h1v1h-1zm47.5 47.5h1v1h-1zm0-96h1v1h-1z"/>
    <path stroke="#14171f" stroke-opacity=".09" d="M102 1062h96v96h-96z"/>
    <path stroke="#14171f" stroke-opacity=".15" d="M102 1056v6m0 0h6m-6 0v6m0-6h-6m6 90v6m0 0h6m-6 0v6m0-6h-6m102-102v6m0 0h6m-6 0v6m0-6h-6m6 90v6m0 0h6m-6 0v6m0-6h-6"/>
    <path fill="#14171f" d="M149 1110h1v1h-1zm0 47.5h1v1h-1zm0-96h1v1h-1z"/>
    <path fill="#14171f" d="M149 1110h1v1h-1zm48.5 0h1v1h-1zm-96 0h1v1h-1zm47.5 47.5h1v1h-1zm0-96h1v1h-1z"/>
    <path stroke="#14171f" stroke-opacity=".09" d="M198 1062h96v96h-96z"/>
    <path stroke="#14171f" stroke-opacity=".15" d="M198 1056v6m0 0h6m-6 0v6m0-6h-6m6 90v6m0 0h6m-6 0v6m0-6h-6m102-102v6m0 0h6m-6 0v6m0-6h-6m6 90v6m0 0h6m-6 0v6m0-6h-6"/>
    <path fill="#14171f" d="M245 1110h1v1h-1zm0 47.5h1v1h-1zm0-96h1v1h-1z"/>
    <path fill="#14171f" d="M245 1110h1v1h-1zm48.5 0h1v1h-1zm-96 0h1v1h-1zm47.5 47.5h1v1h-1zm0-96h1v1h-1z"/>
    <path stroke="#14171f" stroke-opacity=".09" d="M294 1062h96v96h-96z"/>
    <path stroke="#14171f" stroke-opacity=".15" d="M294 1056v6m0 0h6m-6 0v6m0-6h-6m6 90v6m0 0h6m-6 0v6m0-6h-6m102-102v6m0 0h6m-6 0v6m0-6h-6m6 90v6m0 0h6m-6 0v6m0-6h-6"/>
    <path fill="#14171f" d="M341 1110h1v1h-1zm0 47.5h1v1h-1zm0-96h1v1h-1z"/>
    <path fill="#14171f" d="M341 1110h1v1h-1zm48.5 0h1v1h-1zm-96 0h1v1h-1zm47.5 47.5h1v1h-1zm0-96h1v1h-1z"/>
    <path stroke="#14171f" stroke-opacity=".09" d="M390 1062h96v96h-96z"/>
    <path stroke="#14171f" stroke-opacity=".15" d="M390 1056v6m0 0h6m-6 0v6m0-6h-6m6 90v6m0 0h6m-6 0v6m0-6h-6m102-102v6m0 0h6m-6 0v6m0-6h-6m6 90v6m0 0h6m-6 0v6m0-6h-6"/>
    <path fill="#14171f" d="M437 1110h1v1h-1zm0 47.5h1v1h-1zm0-96h1v1h-1z"/>
    <path fill="#14171f" d="M437 1110h1v1h-1zm48.5 0h1v1h-1zm-96 0h1v1h-1zm47.5 47.5h1v1h-1zm0-96h1v1h-1z"/>
    <path stroke="#14171f" stroke-opacity=".09" d="M486 1062h96v96h-96z"/>
    <path stroke="#14171f" stroke-opacity=".15" d="M486 1056v6m0 0h6m-6 0v6m0-6h-6m6 90v6m0 0h6m-6 0v6m0-6h-6m102-102v6m0 0h6m-6 0v6m0-6h-6m6 90v6m0 0h6m-6 0v6m0-6h-6"/>
    <path fill="#14171f" d="M533 1110h1v1h-1zm0 47.5h1v1h-1zm0-96h1v1h-1z"/>
    <path fill="#14171f" d="M533 1110h1v1h-1zm48.5 0h1v1h-1zm-96 0h1v1h-1zm47.5 47.5h1v1h-1zm0-96h1v1h-1z"/>
    <path stroke="#14171f" stroke-opacity=".09" d="M582 1062h96v96h-96z"/>
    <path stroke="#14171f" stroke-opacity=".15" d="M582 1056v6m0 0h6m-6 0v6m0-6h-6m6 90v6m0 0h6m-6 0v6m0-6h-6m102-102v6m0 0h6m-6 0v6m0-6h-6m6 90v6m0 0h6m-6 0v6m0-6h-6"/>
    <path fill="#14171f" d="M629 1110h1v1h-1zm0 47.5h1v1h-1zm0-96h1v1h-1z"/>
    <path fill="#14171f" d="M629 1110h1v1h-1zm48.5 0h1v1h-1zm-96 0h1v1h-1zm47.5 47.5h1v1h-1zm0-96h1v1h-1z"/>
    <path stroke="#14171f" stroke-opacity=".09" d="M678 1062h96v96h-96z"/>
    <path stroke="#14171f" stroke-opacity=".15" d="M678 1056v6m0 0h6m-6 0v6m0-6h-6m6 90v6m0 0h6m-6 0v6m0-6h-6m102-102v6m0 0h6m-6 0v6m0-6h-6m6 90v6m0 0h6m-6 0v6m0-6h-6"/>
    <path fill="#14171f" d="M725 1110h1v1h-1zm0 47.5h1v1h-1zm0-96h1v1h-1z"/>
    <path fill="#14171f" d="M725 1110h1v1h-1zm48.5 0h1v1h-1zm-96 0h1v1h-1zm47.5 47.5h1v1h-1zm0-96h1v1h-1z"/>
    <path stroke="#14171f" stroke-opacity=".09" d="M774 1062h96v96h-96z"/>
    <path stroke="#14171f" stroke-opacity=".15" d="M774 1056v6m0 0h6m-6 0v6m0-6h-6m6 90v6m0 0h6m-6 0v6m0-6h-6m102-102v6m0 0h6m-6 0v6m0-6h-6m6 90v6m0 0h6m-6 0v6m0-6h-6"/>
    <path fill="#14171f" d="M821 1110h1v1h-1zm0 47.5h1v1h-1zm0-96h1v1h-1z"/>
    <path fill="#14171f" d="M821 1110h1v1h-1zm48.5 0h1v1h-1zm-96 0h1v1h-1zm47.5 47.5h1v1h-1zm0-96h1v1h-1z"/>
    <path stroke="#14171f" stroke-opacity=".09" d="M870 1062h96v96h-96z"/>
    <path stroke="#14171f" stroke-opacity=".15" d="M870 1056v6m0 0h6m-6 0v6m0-6h-6m6 90v6m0 0h6m-6 0v6m0-6h-6m102-102v6m0 0h6m-6 0v6m0-6h-6m6 90v6m0 0h6m-6 0v6m0-6h-6"/>
    <path fill="#14171f" d="M917 1110h1v1h-1zm0 47.5h1v1h-1zm0-96h1v1h-1z"/>
    <path fill="#14171f" d="M917 1110h1v1h-1zm48.5 0h1v1h-1zm-96 0h1v1h-1zm47.5 47.5h1v1h-1zm0-96h1v1h-1z"/>
    <path stroke="#14171f" stroke-opacity=".09" d="M966 1062h96v96h-96z"/>
    <path stroke="#14171f" stroke-opacity=".15" d="M966 1056v6m0 0h6m-6 0v6m0-6h-6m6 90v6m0 0h6m-6 0v6m0-6h-6m102-102v6m0 0h6m-6 0v6m0-6h-6m6 90v6m0 0h6m-6 0v6m0-6h-6"/>
    <path fill="#14171f" d="M1013 1110h1v1h-1zm0 47.5h1v1h-1zm0-96h1v1h-1z"/>
    <path fill="#14171f" d="M1013 1110h1v1h-1zm48.5 0h1v1h-1zm-96 0h1v1h-1zm47.5 47.5h1v1h-1zm0-96h1v1h-1z"/>
  </g>
</svg>
